<mxfile host="app.diagrams.net" modified="2020-11-05T12:36:42.895Z" agent="5.0 (Windows NT 10.0; Win64; x64) AppleWebKit/537.36 (KHTML, like Gecko) Chrome/86.0.4240.185 Safari/537.36" etag="AEGZml-vEHqvrDfNui9H" version="13.9.1" type="github">
  <diagram id="HQz6zgWwEOMpAQDS0Saa" name="Page-1">
    <mxGraphModel dx="1657" dy="958" grid="1" gridSize="10" guides="1" tooltips="1" connect="1" arrows="1" fold="1" page="1" pageScale="1" pageWidth="827" pageHeight="1169" math="0" shadow="0">
      <root>
        <mxCell id="0" />
        <mxCell id="1" parent="0" />
        <mxCell id="cxxOy_mN2csLwImhf0tn-1" value="students" style="html=1;overflow=block;whiteSpace=wrap;swimlane;resizeParent=1;resizeParentMax=0;resizeLast=0;collapsible=1;marginBottom=0;swimlaneFillColor=#ffffff;startSize=24;whiteSpace=wrap;fontSize=11;fontColor=#000000;align=left;fillColor=#ffffff;whiteSpace=wrap;spacing=0;strokeOpacity=100;fillOpacity=100;rounded=1;absoluteArcSize=1;arcSize=6;whiteSpace=wrap;whiteSpace=wrap;" vertex="1" zOrder="1" parent="1">
          <mxGeometry x="552" y="240" width="120" height="62" as="geometry" />
        </mxCell>
        <mxCell id="cxxOy_mN2csLwImhf0tn-2" value="studentId" style="strokeColor=none;part=1;resizeHeight=0;align=center;verticalAlign=top;spacingLeft=4;spacingRight=4;overflow=hidden;rotatable=0;points=[[0,0.5],[1,0.5]];portConstraint=eastwest;html=1;swimlaneFillColor=#ffffff;fontSize=11;fontColor=#000000;fillColor=none;strokeOpacity=100;fillOpacity=100;" vertex="1" parent="cxxOy_mN2csLwImhf0tn-1">
          <mxGeometry y="24" width="71.57988274935185" height="19.2" as="geometry" />
        </mxCell>
        <mxCell id="cxxOy_mN2csLwImhf0tn-3" value="PK" style="shape=partialRectangle;top=0;right=0;bottom=0;part=1;resizeHeight=0;align=left;verticalAlign=top;spacingLeft=4;spacingRight=4;overflow=hidden;rotatable=0;points=[[0,0.5],[1,0.5]];portConstraint=eastwest;html=1;swimlaneFillColor=#ffffff;fontSize=11;fontColor=#000000;fillColor=none;strokeOpacity=100;fillOpacity=100;" vertex="1" parent="cxxOy_mN2csLwImhf0tn-1">
          <mxGeometry x="71.57988274935185" y="24" width="48.42011725064815" height="19.2" as="geometry" />
        </mxCell>
        <mxCell id="cxxOy_mN2csLwImhf0tn-4" value="cvId" style="strokeColor=none;part=1;resizeHeight=0;align=center;verticalAlign=top;spacingLeft=4;spacingRight=4;overflow=hidden;rotatable=0;points=[[0,0.5],[1,0.5]];portConstraint=eastwest;html=1;swimlaneFillColor=#ffffff;fontSize=11;fontColor=#000000;fillColor=none;strokeOpacity=100;fillOpacity=100;" vertex="1" parent="cxxOy_mN2csLwImhf0tn-1">
          <mxGeometry y="43.2" width="71.57988274935185" height="19.2" as="geometry" />
        </mxCell>
        <mxCell id="cxxOy_mN2csLwImhf0tn-5" value="FK" style="shape=partialRectangle;top=0;right=0;bottom=0;part=1;resizeHeight=0;align=left;verticalAlign=top;spacingLeft=4;spacingRight=4;overflow=hidden;rotatable=0;points=[[0,0.5],[1,0.5]];portConstraint=eastwest;html=1;swimlaneFillColor=#ffffff;fontSize=11;fontColor=#000000;fillColor=none;strokeOpacity=100;fillOpacity=100;" vertex="1" parent="cxxOy_mN2csLwImhf0tn-1">
          <mxGeometry x="71.57988274935185" y="43.2" width="48.42011725064815" height="19.2" as="geometry" />
        </mxCell>
        <mxCell id="cxxOy_mN2csLwImhf0tn-6" value="users" style="html=1;overflow=block;whiteSpace=wrap;swimlane;resizeParent=1;resizeParentMax=0;resizeLast=0;collapsible=1;marginBottom=0;swimlaneFillColor=#ffffff;startSize=24;whiteSpace=wrap;fontSize=11;fontColor=#000000;align=left;fillColor=#ffffff;whiteSpace=wrap;spacing=0;strokeOpacity=100;fillOpacity=100;rounded=1;absoluteArcSize=1;arcSize=6;" vertex="1" zOrder="2" parent="1">
          <mxGeometry x="732" y="264" width="180" height="229" as="geometry" />
        </mxCell>
        <mxCell id="cxxOy_mN2csLwImhf0tn-7" value="userId" style="strokeColor=none;part=1;resizeHeight=0;align=left;verticalAlign=top;spacingLeft=4;spacingRight=4;overflow=hidden;rotatable=0;points=[[0,0.5],[1,0.5]];portConstraint=eastwest;swimlaneFillColor=#ffffff;fontSize=11;fontColor=#000000;fillColor=none;strokeOpacity=100;fillOpacity=100;whiteSpace=wrap;spacing=0;rounded=1;absoluteArcSize=1;arcSize=6;" vertex="1" parent="cxxOy_mN2csLwImhf0tn-6">
          <mxGeometry y="24" width="127.55615226935483" height="19.2" as="geometry" />
        </mxCell>
        <mxCell id="cxxOy_mN2csLwImhf0tn-8" value="PK" style="shape=partialRectangle;top=0;right=0;bottom=0;part=1;resizeHeight=0;align=left;verticalAlign=top;spacingLeft=4;spacingRight=4;overflow=hidden;rotatable=0;points=[[0,0.5],[1,0.5]];portConstraint=eastwest;swimlaneFillColor=#ffffff;fontSize=11;fontColor=#000000;fillColor=none;strokeOpacity=100;fillOpacity=100;whiteSpace=wrap;spacing=0;rounded=1;absoluteArcSize=1;arcSize=6;" vertex="1" parent="cxxOy_mN2csLwImhf0tn-6">
          <mxGeometry x="127.55615226935483" y="24" width="52.443847730645174" height="19.2" as="geometry" />
        </mxCell>
        <mxCell id="cxxOy_mN2csLwImhf0tn-9" value="groupId" style="strokeColor=none;part=1;resizeHeight=0;align=left;verticalAlign=top;spacingLeft=4;spacingRight=4;overflow=hidden;rotatable=0;points=[[0,0.5],[1,0.5]];portConstraint=eastwest;swimlaneFillColor=#ffffff;fontSize=11;fillColor=none;strokeOpacity=100;fillOpacity=100;whiteSpace=wrap;spacing=0;rounded=1;absoluteArcSize=1;arcSize=6;" vertex="1" parent="cxxOy_mN2csLwImhf0tn-6">
          <mxGeometry y="43.2" width="127.55615226935483" height="19.2" as="geometry" />
        </mxCell>
        <mxCell id="cxxOy_mN2csLwImhf0tn-10" value="FK" style="shape=partialRectangle;top=0;right=0;bottom=0;part=1;resizeHeight=0;align=left;verticalAlign=top;spacingLeft=4;spacingRight=4;overflow=hidden;rotatable=0;points=[[0,0.5],[1,0.5]];portConstraint=eastwest;swimlaneFillColor=#ffffff;fontSize=11;fillColor=none;strokeOpacity=100;fillOpacity=100;whiteSpace=wrap;spacing=0;rounded=1;absoluteArcSize=1;arcSize=6;" vertex="1" parent="cxxOy_mN2csLwImhf0tn-6">
          <mxGeometry x="127.55615226935483" y="43.2" width="52.443847730645174" height="19.2" as="geometry" />
        </mxCell>
        <mxCell id="cxxOy_mN2csLwImhf0tn-11" value="statusId(employerId, studentId)" style="strokeColor=none;part=1;resizeHeight=0;align=left;verticalAlign=top;spacingLeft=4;spacingRight=4;overflow=hidden;rotatable=0;points=[[0,0.5],[1,0.5]];portConstraint=eastwest;swimlaneFillColor=#ffffff;fontSize=11;fontColor=#000000;fillColor=none;strokeOpacity=100;fillOpacity=100;whiteSpace=wrap;spacing=0;rounded=1;absoluteArcSize=1;arcSize=6;" vertex="1" parent="cxxOy_mN2csLwImhf0tn-6">
          <mxGeometry y="62.400000000000006" width="127.55615226935483" height="31.799999999999997" as="geometry" />
        </mxCell>
        <mxCell id="cxxOy_mN2csLwImhf0tn-12" value="FK" style="shape=partialRectangle;top=0;right=0;bottom=0;part=1;resizeHeight=0;align=left;verticalAlign=top;spacingLeft=4;spacingRight=4;overflow=hidden;rotatable=0;points=[[0,0.5],[1,0.5]];portConstraint=eastwest;swimlaneFillColor=#ffffff;fontSize=11;fontColor=#000000;fillColor=none;strokeOpacity=100;fillOpacity=100;whiteSpace=wrap;spacing=0;rounded=1;absoluteArcSize=1;arcSize=6;" vertex="1" parent="cxxOy_mN2csLwImhf0tn-6">
          <mxGeometry x="127.55615226935483" y="62.400000000000006" width="52.443847730645174" height="19.2" as="geometry" />
        </mxCell>
        <mxCell id="cxxOy_mN2csLwImhf0tn-13" value="username" style="strokeColor=none;part=1;resizeHeight=0;align=left;verticalAlign=top;spacingLeft=4;spacingRight=4;overflow=hidden;rotatable=0;points=[[0,0.5],[1,0.5]];portConstraint=eastwest;swimlaneFillColor=#ffffff;fontSize=11;fontColor=#000000;fillColor=none;strokeOpacity=100;fillOpacity=100;whiteSpace=wrap;spacing=0;rounded=1;absoluteArcSize=1;arcSize=6;" vertex="1" parent="cxxOy_mN2csLwImhf0tn-6">
          <mxGeometry y="94.2" width="127.55615226935483" height="19.2" as="geometry" />
        </mxCell>
        <mxCell id="cxxOy_mN2csLwImhf0tn-14" value="String" style="shape=partialRectangle;top=0;right=0;bottom=0;part=1;resizeHeight=0;align=left;verticalAlign=top;spacingLeft=4;spacingRight=4;overflow=hidden;rotatable=0;points=[[0,0.5],[1,0.5]];portConstraint=eastwest;swimlaneFillColor=#ffffff;fontSize=11;fontColor=#000000;fillColor=none;strokeOpacity=100;fillOpacity=100;whiteSpace=wrap;spacing=0;rounded=1;absoluteArcSize=1;arcSize=6;" vertex="1" parent="cxxOy_mN2csLwImhf0tn-6">
          <mxGeometry x="127.55615226935483" y="94.2" width="52.443847730645174" height="19.2" as="geometry" />
        </mxCell>
        <mxCell id="cxxOy_mN2csLwImhf0tn-15" value="password" style="strokeColor=none;part=1;resizeHeight=0;align=left;verticalAlign=top;spacingLeft=4;spacingRight=4;overflow=hidden;rotatable=0;points=[[0,0.5],[1,0.5]];portConstraint=eastwest;swimlaneFillColor=#ffffff;fontSize=11;fillColor=none;strokeOpacity=100;fillOpacity=100;whiteSpace=wrap;spacing=0;rounded=1;absoluteArcSize=1;arcSize=6;" vertex="1" parent="cxxOy_mN2csLwImhf0tn-6">
          <mxGeometry y="113.4" width="127.55615226935483" height="19.2" as="geometry" />
        </mxCell>
        <mxCell id="cxxOy_mN2csLwImhf0tn-16" value="String" style="shape=partialRectangle;top=0;right=0;bottom=0;part=1;resizeHeight=0;align=left;verticalAlign=top;spacingLeft=4;spacingRight=4;overflow=hidden;rotatable=0;points=[[0,0.5],[1,0.5]];portConstraint=eastwest;swimlaneFillColor=#ffffff;fontSize=11;fillColor=none;strokeOpacity=100;fillOpacity=100;whiteSpace=wrap;spacing=0;rounded=1;absoluteArcSize=1;arcSize=6;" vertex="1" parent="cxxOy_mN2csLwImhf0tn-6">
          <mxGeometry x="127.55615226935483" y="113.4" width="52.443847730645174" height="19.2" as="geometry" />
        </mxCell>
        <mxCell id="cxxOy_mN2csLwImhf0tn-17" value="email" style="strokeColor=none;part=1;resizeHeight=0;align=left;verticalAlign=top;spacingLeft=4;spacingRight=4;overflow=hidden;rotatable=0;points=[[0,0.5],[1,0.5]];portConstraint=eastwest;swimlaneFillColor=#ffffff;fontSize=11;fillColor=none;strokeOpacity=100;fillOpacity=100;whiteSpace=wrap;spacing=0;rounded=1;absoluteArcSize=1;arcSize=6;" vertex="1" parent="cxxOy_mN2csLwImhf0tn-6">
          <mxGeometry y="132.6" width="127.55615226935483" height="19.2" as="geometry" />
        </mxCell>
        <mxCell id="cxxOy_mN2csLwImhf0tn-18" value="String" style="shape=partialRectangle;top=0;right=0;bottom=0;part=1;resizeHeight=0;align=left;verticalAlign=top;spacingLeft=4;spacingRight=4;overflow=hidden;rotatable=0;points=[[0,0.5],[1,0.5]];portConstraint=eastwest;swimlaneFillColor=#ffffff;fontSize=11;fillColor=none;strokeOpacity=100;fillOpacity=100;whiteSpace=wrap;spacing=0;rounded=1;absoluteArcSize=1;arcSize=6;" vertex="1" parent="cxxOy_mN2csLwImhf0tn-6">
          <mxGeometry x="127.55615226935483" y="132.6" width="52.443847730645174" height="19.2" as="geometry" />
        </mxCell>
        <mxCell id="cxxOy_mN2csLwImhf0tn-19" value="phone" style="strokeColor=none;part=1;resizeHeight=0;align=left;verticalAlign=top;spacingLeft=4;spacingRight=4;overflow=hidden;rotatable=0;points=[[0,0.5],[1,0.5]];portConstraint=eastwest;swimlaneFillColor=#ffffff;fontSize=11;fillColor=none;strokeOpacity=100;fillOpacity=100;whiteSpace=wrap;spacing=0;rounded=1;absoluteArcSize=1;arcSize=6;" vertex="1" parent="cxxOy_mN2csLwImhf0tn-6">
          <mxGeometry y="151.79999999999998" width="127.55615226935483" height="19.2" as="geometry" />
        </mxCell>
        <mxCell id="cxxOy_mN2csLwImhf0tn-20" value="Number" style="shape=partialRectangle;top=0;right=0;bottom=0;part=1;resizeHeight=0;align=left;verticalAlign=top;spacingLeft=4;spacingRight=4;overflow=hidden;rotatable=0;points=[[0,0.5],[1,0.5]];portConstraint=eastwest;swimlaneFillColor=#ffffff;fontSize=11;fillColor=none;strokeOpacity=100;fillOpacity=100;whiteSpace=wrap;spacing=0;rounded=1;absoluteArcSize=1;arcSize=6;" vertex="1" parent="cxxOy_mN2csLwImhf0tn-6">
          <mxGeometry x="127.55615226935483" y="151.79999999999998" width="52.443847730645174" height="19.2" as="geometry" />
        </mxCell>
        <mxCell id="cxxOy_mN2csLwImhf0tn-21" value="firstName" style="strokeColor=none;part=1;resizeHeight=0;align=left;verticalAlign=top;spacingLeft=4;spacingRight=4;overflow=hidden;rotatable=0;points=[[0,0.5],[1,0.5]];portConstraint=eastwest;swimlaneFillColor=#ffffff;fontSize=11;fillColor=none;strokeOpacity=100;fillOpacity=100;whiteSpace=wrap;spacing=0;rounded=1;absoluteArcSize=1;arcSize=6;" vertex="1" parent="cxxOy_mN2csLwImhf0tn-6">
          <mxGeometry y="170.99999999999997" width="127.55615226935483" height="19.2" as="geometry" />
        </mxCell>
        <mxCell id="cxxOy_mN2csLwImhf0tn-22" value="String" style="shape=partialRectangle;top=0;right=0;bottom=0;part=1;resizeHeight=0;align=left;verticalAlign=top;spacingLeft=4;spacingRight=4;overflow=hidden;rotatable=0;points=[[0,0.5],[1,0.5]];portConstraint=eastwest;swimlaneFillColor=#ffffff;fontSize=11;fillColor=none;strokeOpacity=100;fillOpacity=100;whiteSpace=wrap;spacing=0;rounded=1;absoluteArcSize=1;arcSize=6;" vertex="1" parent="cxxOy_mN2csLwImhf0tn-6">
          <mxGeometry x="127.55615226935483" y="170.99999999999997" width="52.443847730645174" height="19.2" as="geometry" />
        </mxCell>
        <mxCell id="cxxOy_mN2csLwImhf0tn-23" value="lastName" style="strokeColor=none;part=1;resizeHeight=0;align=left;verticalAlign=top;spacingLeft=4;spacingRight=4;overflow=hidden;rotatable=0;points=[[0,0.5],[1,0.5]];portConstraint=eastwest;swimlaneFillColor=#ffffff;fontSize=11;fillColor=none;strokeOpacity=100;fillOpacity=100;whiteSpace=wrap;spacing=0;rounded=1;absoluteArcSize=1;arcSize=6;" vertex="1" parent="cxxOy_mN2csLwImhf0tn-6">
          <mxGeometry y="190.19999999999996" width="127.55615226935483" height="19.2" as="geometry" />
        </mxCell>
        <mxCell id="cxxOy_mN2csLwImhf0tn-24" value="String" style="shape=partialRectangle;top=0;right=0;bottom=0;part=1;resizeHeight=0;align=left;verticalAlign=top;spacingLeft=4;spacingRight=4;overflow=hidden;rotatable=0;points=[[0,0.5],[1,0.5]];portConstraint=eastwest;swimlaneFillColor=#ffffff;fontSize=11;fillColor=none;strokeOpacity=100;fillOpacity=100;whiteSpace=wrap;spacing=0;rounded=1;absoluteArcSize=1;arcSize=6;" vertex="1" parent="cxxOy_mN2csLwImhf0tn-6">
          <mxGeometry x="127.55615226935483" y="190.19999999999996" width="52.443847730645174" height="19.2" as="geometry" />
        </mxCell>
        <mxCell id="cxxOy_mN2csLwImhf0tn-25" value="lastLogin" style="strokeColor=none;part=1;resizeHeight=0;align=left;verticalAlign=top;spacingLeft=4;spacingRight=4;overflow=hidden;rotatable=0;points=[[0,0.5],[1,0.5]];portConstraint=eastwest;swimlaneFillColor=#ffffff;fontSize=11;fillColor=none;strokeOpacity=100;fillOpacity=100;whiteSpace=wrap;spacing=0;rounded=1;absoluteArcSize=1;arcSize=6;" vertex="1" parent="cxxOy_mN2csLwImhf0tn-6">
          <mxGeometry y="209.39999999999995" width="127.55615226935483" height="19.2" as="geometry" />
        </mxCell>
        <mxCell id="cxxOy_mN2csLwImhf0tn-26" value="Date" style="shape=partialRectangle;top=0;right=0;bottom=0;part=1;resizeHeight=0;align=left;verticalAlign=top;spacingLeft=4;spacingRight=4;overflow=hidden;rotatable=0;points=[[0,0.5],[1,0.5]];portConstraint=eastwest;swimlaneFillColor=#ffffff;fontSize=11;fillColor=none;strokeOpacity=100;fillOpacity=100;whiteSpace=wrap;spacing=0;rounded=1;absoluteArcSize=1;arcSize=6;" vertex="1" parent="cxxOy_mN2csLwImhf0tn-6">
          <mxGeometry x="127.55615226935483" y="209.39999999999995" width="52.443847730645174" height="19.2" as="geometry" />
        </mxCell>
        <mxCell id="cxxOy_mN2csLwImhf0tn-27" value="groups" style="html=1;overflow=block;whiteSpace=wrap;swimlane;resizeParent=1;resizeParentMax=0;resizeLast=0;collapsible=1;marginBottom=0;swimlaneFillColor=#ffffff;startSize=24;whiteSpace=wrap;fontSize=11;fontColor=#000000;align=left;fillColor=#ffffff;whiteSpace=wrap;spacing=0;strokeOpacity=100;fillOpacity=100;rounded=1;absoluteArcSize=1;arcSize=6;" vertex="1" zOrder="10" parent="1">
          <mxGeometry x="1020" y="216" width="108" height="62" as="geometry" />
        </mxCell>
        <mxCell id="cxxOy_mN2csLwImhf0tn-28" value="groupId" style="strokeColor=none;part=1;resizeHeight=0;align=left;verticalAlign=top;spacingLeft=4;spacingRight=4;overflow=hidden;rotatable=0;points=[[0,0.5],[1,0.5]];portConstraint=eastwest;swimlaneFillColor=#ffffff;fontSize=11;fontColor=#000000;fillColor=none;strokeOpacity=100;fillOpacity=100;whiteSpace=wrap;spacing=0;rounded=1;absoluteArcSize=1;arcSize=6;" vertex="1" parent="cxxOy_mN2csLwImhf0tn-27">
          <mxGeometry y="24" width="69.87447504430334" height="19.2" as="geometry" />
        </mxCell>
        <mxCell id="cxxOy_mN2csLwImhf0tn-29" value="PK" style="shape=partialRectangle;top=0;right=0;bottom=0;part=1;resizeHeight=0;align=left;verticalAlign=top;spacingLeft=4;spacingRight=4;overflow=hidden;rotatable=0;points=[[0,0.5],[1,0.5]];portConstraint=eastwest;swimlaneFillColor=#ffffff;fontSize=11;fontColor=#000000;fillColor=none;strokeOpacity=100;fillOpacity=100;whiteSpace=wrap;spacing=0;rounded=1;absoluteArcSize=1;arcSize=6;" vertex="1" parent="cxxOy_mN2csLwImhf0tn-27">
          <mxGeometry x="69.87447504430334" y="24" width="38.12552495569666" height="19.2" as="geometry" />
        </mxCell>
        <mxCell id="cxxOy_mN2csLwImhf0tn-30" value="groupName" style="strokeColor=none;part=1;resizeHeight=0;align=left;verticalAlign=top;spacingLeft=4;spacingRight=4;overflow=hidden;rotatable=0;points=[[0,0.5],[1,0.5]];portConstraint=eastwest;swimlaneFillColor=#ffffff;fontSize=11;fontColor=#000000;fillColor=none;strokeOpacity=100;fillOpacity=100;whiteSpace=wrap;spacing=0;rounded=1;absoluteArcSize=1;arcSize=6;" vertex="1" parent="cxxOy_mN2csLwImhf0tn-27">
          <mxGeometry y="43.2" width="69.87447504430334" height="19.2" as="geometry" />
        </mxCell>
        <mxCell id="cxxOy_mN2csLwImhf0tn-31" value="String" style="shape=partialRectangle;top=0;right=0;bottom=0;part=1;resizeHeight=0;align=left;verticalAlign=top;spacingLeft=4;spacingRight=4;overflow=hidden;rotatable=0;points=[[0,0.5],[1,0.5]];portConstraint=eastwest;swimlaneFillColor=#ffffff;fontSize=11;fontColor=#000000;fillColor=none;strokeOpacity=100;fillOpacity=100;whiteSpace=wrap;spacing=0;rounded=1;absoluteArcSize=1;arcSize=6;" vertex="1" parent="cxxOy_mN2csLwImhf0tn-27">
          <mxGeometry x="69.87447504430334" y="43.2" width="38.12552495569666" height="19.2" as="geometry" />
        </mxCell>
        <mxCell id="cxxOy_mN2csLwImhf0tn-32" value="cvs" style="html=1;overflow=block;whiteSpace=wrap;swimlane;resizeParent=1;resizeParentMax=0;resizeLast=0;collapsible=1;marginBottom=0;swimlaneFillColor=#ffffff;startSize=24;whiteSpace=wrap;fontSize=11;fontColor=#000000;align=left;fillColor=#ffffff;whiteSpace=wrap;spacing=0;strokeOpacity=100;fillOpacity=100;rounded=1;absoluteArcSize=1;arcSize=6;whiteSpace=wrap;whiteSpace=wrap;whiteSpace=wrap;whiteSpace=wrap;whiteSpace=wrap;whiteSpace=wrap;whiteSpace=wrap;whiteSpace=wrap;whiteSpace=wrap;whiteSpace=wrap;whiteSpace=wrap;" vertex="1" zOrder="11" parent="1">
          <mxGeometry x="312" y="216" width="144" height="235" as="geometry" />
        </mxCell>
        <mxCell id="cxxOy_mN2csLwImhf0tn-33" value="cvId" style="strokeColor=none;part=1;resizeHeight=0;align=center;verticalAlign=top;spacingLeft=4;spacingRight=4;overflow=hidden;rotatable=0;points=[[0,0.5],[1,0.5]];portConstraint=eastwest;html=1;swimlaneFillColor=#ffffff;fontSize=11;fontColor=#000000;fillColor=none;strokeOpacity=100;fillOpacity=100;" vertex="1" parent="cxxOy_mN2csLwImhf0tn-32">
          <mxGeometry y="24" width="93.28264389165169" height="19.2" as="geometry" />
        </mxCell>
        <mxCell id="cxxOy_mN2csLwImhf0tn-34" value="PK" style="shape=partialRectangle;top=0;right=0;bottom=0;part=1;resizeHeight=0;align=left;verticalAlign=top;spacingLeft=4;spacingRight=4;overflow=hidden;rotatable=0;points=[[0,0.5],[1,0.5]];portConstraint=eastwest;html=1;swimlaneFillColor=#ffffff;fontSize=11;fontColor=#000000;fillColor=none;strokeOpacity=100;fillOpacity=100;" vertex="1" parent="cxxOy_mN2csLwImhf0tn-32">
          <mxGeometry x="93.28264389165169" y="24" width="50.71735610834831" height="19.2" as="geometry" />
        </mxCell>
        <mxCell id="cxxOy_mN2csLwImhf0tn-35" value="city" style="strokeColor=none;part=1;resizeHeight=0;align=center;verticalAlign=top;spacingLeft=4;spacingRight=4;overflow=hidden;rotatable=0;points=[[0,0.5],[1,0.5]];portConstraint=eastwest;html=1;swimlaneFillColor=#ffffff;fontSize=11;fontColor=#000000;fillColor=none;strokeOpacity=100;fillOpacity=100;" vertex="1" parent="cxxOy_mN2csLwImhf0tn-32">
          <mxGeometry y="43.2" width="93.28264389165169" height="19.2" as="geometry" />
        </mxCell>
        <mxCell id="cxxOy_mN2csLwImhf0tn-36" value="String" style="shape=partialRectangle;top=0;right=0;bottom=0;part=1;resizeHeight=0;align=left;verticalAlign=top;spacingLeft=4;spacingRight=4;overflow=hidden;rotatable=0;points=[[0,0.5],[1,0.5]];portConstraint=eastwest;html=1;swimlaneFillColor=#ffffff;fontSize=11;fontColor=#000000;fillColor=none;strokeOpacity=100;fillOpacity=100;" vertex="1" parent="cxxOy_mN2csLwImhf0tn-32">
          <mxGeometry x="93.28264389165169" y="43.2" width="50.71735610834831" height="19.2" as="geometry" />
        </mxCell>
        <mxCell id="cxxOy_mN2csLwImhf0tn-37" value="birthDate" style="strokeColor=none;part=1;resizeHeight=0;align=center;verticalAlign=top;spacingLeft=4;spacingRight=4;overflow=hidden;rotatable=0;points=[[0,0.5],[1,0.5]];portConstraint=eastwest;html=1;swimlaneFillColor=#ffffff;fontSize=11;fillColor=none;strokeOpacity=100;fillOpacity=100;" vertex="1" parent="cxxOy_mN2csLwImhf0tn-32">
          <mxGeometry y="62.400000000000006" width="93.28264389165169" height="19.2" as="geometry" />
        </mxCell>
        <mxCell id="cxxOy_mN2csLwImhf0tn-38" value="Date" style="shape=partialRectangle;top=0;right=0;bottom=0;part=1;resizeHeight=0;align=left;verticalAlign=top;spacingLeft=4;spacingRight=4;overflow=hidden;rotatable=0;points=[[0,0.5],[1,0.5]];portConstraint=eastwest;html=1;swimlaneFillColor=#ffffff;fontSize=11;fillColor=none;strokeOpacity=100;fillOpacity=100;" vertex="1" parent="cxxOy_mN2csLwImhf0tn-32">
          <mxGeometry x="93.28264389165169" y="62.400000000000006" width="50.71735610834831" height="19.2" as="geometry" />
        </mxCell>
        <mxCell id="cxxOy_mN2csLwImhf0tn-39" value="gender " style="strokeColor=none;part=1;resizeHeight=0;align=center;verticalAlign=top;spacingLeft=4;spacingRight=4;overflow=hidden;rotatable=0;points=[[0,0.5],[1,0.5]];portConstraint=eastwest;html=1;swimlaneFillColor=#ffffff;fontSize=11;fillColor=none;strokeOpacity=100;fillOpacity=100;" vertex="1" parent="cxxOy_mN2csLwImhf0tn-32">
          <mxGeometry y="81.60000000000001" width="93.28264389165169" height="19.2" as="geometry" />
        </mxCell>
        <mxCell id="cxxOy_mN2csLwImhf0tn-40" value="Boolean" style="shape=partialRectangle;top=0;right=0;bottom=0;part=1;resizeHeight=0;align=left;verticalAlign=top;spacingLeft=4;spacingRight=4;overflow=hidden;rotatable=0;points=[[0,0.5],[1,0.5]];portConstraint=eastwest;html=1;swimlaneFillColor=#ffffff;fontSize=11;fillColor=none;strokeOpacity=100;fillOpacity=100;" vertex="1" parent="cxxOy_mN2csLwImhf0tn-32">
          <mxGeometry x="93.28264389165169" y="81.60000000000001" width="50.71735610834831" height="19.2" as="geometry" />
        </mxCell>
        <mxCell id="cxxOy_mN2csLwImhf0tn-41" value="nationality" style="strokeColor=none;part=1;resizeHeight=0;align=center;verticalAlign=top;spacingLeft=4;spacingRight=4;overflow=hidden;rotatable=0;points=[[0,0.5],[1,0.5]];portConstraint=eastwest;html=1;swimlaneFillColor=#ffffff;fontSize=11;fillColor=none;strokeOpacity=100;fillOpacity=100;" vertex="1" parent="cxxOy_mN2csLwImhf0tn-32">
          <mxGeometry y="100.80000000000001" width="93.28264389165169" height="19.2" as="geometry" />
        </mxCell>
        <mxCell id="cxxOy_mN2csLwImhf0tn-42" value="String" style="shape=partialRectangle;top=0;right=0;bottom=0;part=1;resizeHeight=0;align=left;verticalAlign=top;spacingLeft=4;spacingRight=4;overflow=hidden;rotatable=0;points=[[0,0.5],[1,0.5]];portConstraint=eastwest;html=1;swimlaneFillColor=#ffffff;fontSize=11;fillColor=none;strokeOpacity=100;fillOpacity=100;" vertex="1" parent="cxxOy_mN2csLwImhf0tn-32">
          <mxGeometry x="93.28264389165169" y="100.80000000000001" width="50.71735610834831" height="19.2" as="geometry" />
        </mxCell>
        <mxCell id="cxxOy_mN2csLwImhf0tn-43" value="educaiton" style="strokeColor=none;part=1;resizeHeight=0;align=center;verticalAlign=top;spacingLeft=4;spacingRight=4;overflow=hidden;rotatable=0;points=[[0,0.5],[1,0.5]];portConstraint=eastwest;html=1;swimlaneFillColor=#ffffff;fontSize=11;fillColor=none;strokeOpacity=100;fillOpacity=100;" vertex="1" parent="cxxOy_mN2csLwImhf0tn-32">
          <mxGeometry y="120.00000000000001" width="93.28264389165169" height="19.2" as="geometry" />
        </mxCell>
        <mxCell id="cxxOy_mN2csLwImhf0tn-44" value="String" style="shape=partialRectangle;top=0;right=0;bottom=0;part=1;resizeHeight=0;align=left;verticalAlign=top;spacingLeft=4;spacingRight=4;overflow=hidden;rotatable=0;points=[[0,0.5],[1,0.5]];portConstraint=eastwest;html=1;swimlaneFillColor=#ffffff;fontSize=11;fillColor=none;strokeOpacity=100;fillOpacity=100;" vertex="1" parent="cxxOy_mN2csLwImhf0tn-32">
          <mxGeometry x="93.28264389165169" y="120.00000000000001" width="50.71735610834831" height="19.2" as="geometry" />
        </mxCell>
        <mxCell id="cxxOy_mN2csLwImhf0tn-45" value="experience" style="strokeColor=none;part=1;resizeHeight=0;align=center;verticalAlign=top;spacingLeft=4;spacingRight=4;overflow=hidden;rotatable=0;points=[[0,0.5],[1,0.5]];portConstraint=eastwest;html=1;swimlaneFillColor=#ffffff;fontSize=11;fillColor=none;strokeOpacity=100;fillOpacity=100;" vertex="1" parent="cxxOy_mN2csLwImhf0tn-32">
          <mxGeometry y="139.20000000000002" width="93.28264389165169" height="19.2" as="geometry" />
        </mxCell>
        <mxCell id="cxxOy_mN2csLwImhf0tn-46" value="Boolean" style="shape=partialRectangle;top=0;right=0;bottom=0;part=1;resizeHeight=0;align=left;verticalAlign=top;spacingLeft=4;spacingRight=4;overflow=hidden;rotatable=0;points=[[0,0.5],[1,0.5]];portConstraint=eastwest;html=1;swimlaneFillColor=#ffffff;fontSize=11;fillColor=none;strokeOpacity=100;fillOpacity=100;" vertex="1" parent="cxxOy_mN2csLwImhf0tn-32">
          <mxGeometry x="93.28264389165169" y="139.20000000000002" width="50.71735610834831" height="19.2" as="geometry" />
        </mxCell>
        <mxCell id="cxxOy_mN2csLwImhf0tn-47" value="speciality" style="strokeColor=none;part=1;resizeHeight=0;align=center;verticalAlign=top;spacingLeft=4;spacingRight=4;overflow=hidden;rotatable=0;points=[[0,0.5],[1,0.5]];portConstraint=eastwest;html=1;swimlaneFillColor=#ffffff;fontSize=11;fillColor=none;strokeOpacity=100;fillOpacity=100;" vertex="1" parent="cxxOy_mN2csLwImhf0tn-32">
          <mxGeometry y="158.4" width="93.28264389165169" height="19.2" as="geometry" />
        </mxCell>
        <mxCell id="cxxOy_mN2csLwImhf0tn-48" value="String" style="shape=partialRectangle;top=0;right=0;bottom=0;part=1;resizeHeight=0;align=left;verticalAlign=top;spacingLeft=4;spacingRight=4;overflow=hidden;rotatable=0;points=[[0,0.5],[1,0.5]];portConstraint=eastwest;html=1;swimlaneFillColor=#ffffff;fontSize=11;fillColor=none;strokeOpacity=100;fillOpacity=100;" vertex="1" parent="cxxOy_mN2csLwImhf0tn-32">
          <mxGeometry x="93.28264389165169" y="158.4" width="50.71735610834831" height="19.2" as="geometry" />
        </mxCell>
        <mxCell id="cxxOy_mN2csLwImhf0tn-49" value="salary" style="strokeColor=none;part=1;resizeHeight=0;align=center;verticalAlign=top;spacingLeft=4;spacingRight=4;overflow=hidden;rotatable=0;points=[[0,0.5],[1,0.5]];portConstraint=eastwest;html=1;swimlaneFillColor=#ffffff;fontSize=11;fillColor=none;strokeOpacity=100;fillOpacity=100;" vertex="1" parent="cxxOy_mN2csLwImhf0tn-32">
          <mxGeometry y="177.6" width="93.28264389165169" height="19.2" as="geometry" />
        </mxCell>
        <mxCell id="cxxOy_mN2csLwImhf0tn-50" value="Number" style="shape=partialRectangle;top=0;right=0;bottom=0;part=1;resizeHeight=0;align=left;verticalAlign=top;spacingLeft=4;spacingRight=4;overflow=hidden;rotatable=0;points=[[0,0.5],[1,0.5]];portConstraint=eastwest;html=1;swimlaneFillColor=#ffffff;fontSize=11;fillColor=none;strokeOpacity=100;fillOpacity=100;" vertex="1" parent="cxxOy_mN2csLwImhf0tn-32">
          <mxGeometry x="93.28264389165169" y="177.6" width="50.71735610834831" height="19.2" as="geometry" />
        </mxCell>
        <mxCell id="cxxOy_mN2csLwImhf0tn-51" value="currencyCode" style="strokeColor=none;part=1;resizeHeight=0;align=center;verticalAlign=top;spacingLeft=4;spacingRight=4;overflow=hidden;rotatable=0;points=[[0,0.5],[1,0.5]];portConstraint=eastwest;html=1;swimlaneFillColor=#ffffff;fontSize=11;fillColor=none;strokeOpacity=100;fillOpacity=100;" vertex="1" parent="cxxOy_mN2csLwImhf0tn-32">
          <mxGeometry y="196.79999999999998" width="93.28264389165169" height="19.2" as="geometry" />
        </mxCell>
        <mxCell id="cxxOy_mN2csLwImhf0tn-52" value="String" style="shape=partialRectangle;top=0;right=0;bottom=0;part=1;resizeHeight=0;align=left;verticalAlign=top;spacingLeft=4;spacingRight=4;overflow=hidden;rotatable=0;points=[[0,0.5],[1,0.5]];portConstraint=eastwest;html=1;swimlaneFillColor=#ffffff;fontSize=11;fillColor=none;strokeOpacity=100;fillOpacity=100;" vertex="1" parent="cxxOy_mN2csLwImhf0tn-32">
          <mxGeometry x="93.28264389165169" y="196.79999999999998" width="50.71735610834831" height="19.2" as="geometry" />
        </mxCell>
        <mxCell id="cxxOy_mN2csLwImhf0tn-53" value="language" style="strokeColor=none;part=1;resizeHeight=0;align=center;verticalAlign=top;spacingLeft=4;spacingRight=4;overflow=hidden;rotatable=0;points=[[0,0.5],[1,0.5]];portConstraint=eastwest;html=1;swimlaneFillColor=#ffffff;fontSize=11;fillColor=none;strokeOpacity=100;fillOpacity=100;" vertex="1" parent="cxxOy_mN2csLwImhf0tn-32">
          <mxGeometry y="215.99999999999997" width="93.28264389165169" height="19.2" as="geometry" />
        </mxCell>
        <mxCell id="cxxOy_mN2csLwImhf0tn-54" value="String" style="shape=partialRectangle;top=0;right=0;bottom=0;part=1;resizeHeight=0;align=left;verticalAlign=top;spacingLeft=4;spacingRight=4;overflow=hidden;rotatable=0;points=[[0,0.5],[1,0.5]];portConstraint=eastwest;html=1;swimlaneFillColor=#ffffff;fontSize=11;fillColor=none;strokeOpacity=100;fillOpacity=100;" vertex="1" parent="cxxOy_mN2csLwImhf0tn-32">
          <mxGeometry x="93.28264389165169" y="215.99999999999997" width="50.71735610834831" height="19.2" as="geometry" />
        </mxCell>
        <mxCell id="cxxOy_mN2csLwImhf0tn-55" value="additional_informations" style="html=1;overflow=block;whiteSpace=wrap;swimlane;resizeParent=1;resizeParentMax=0;resizeLast=0;collapsible=1;marginBottom=0;swimlaneFillColor=#ffffff;startSize=24;whiteSpace=wrap;fontSize=11;fontColor=#000000;align=left;fillColor=#ffffff;whiteSpace=wrap;spacing=0;strokeOpacity=100;fillOpacity=100;rounded=1;absoluteArcSize=1;arcSize=6;whiteSpace=wrap;whiteSpace=wrap;whiteSpace=wrap;whiteSpace=wrap;whiteSpace=wrap;whiteSpace=wrap;whiteSpace=wrap;" vertex="1" zOrder="13" parent="1">
          <mxGeometry x="84" y="132" width="144" height="158" as="geometry" />
        </mxCell>
        <mxCell id="cxxOy_mN2csLwImhf0tn-56" value="cvId" style="strokeColor=none;part=1;resizeHeight=0;align=center;verticalAlign=top;spacingLeft=4;spacingRight=4;overflow=hidden;rotatable=0;points=[[0,0.5],[1,0.5]];portConstraint=eastwest;html=1;swimlaneFillColor=#ffffff;fontSize=11;fontColor=#000000;fillColor=none;strokeOpacity=100;fillOpacity=100;" vertex="1" parent="cxxOy_mN2csLwImhf0tn-55">
          <mxGeometry y="24" width="93.28264389165169" height="19.2" as="geometry" />
        </mxCell>
        <mxCell id="cxxOy_mN2csLwImhf0tn-57" value="Number" style="shape=partialRectangle;top=0;right=0;bottom=0;part=1;resizeHeight=0;align=left;verticalAlign=top;spacingLeft=4;spacingRight=4;overflow=hidden;rotatable=0;points=[[0,0.5],[1,0.5]];portConstraint=eastwest;html=1;swimlaneFillColor=#ffffff;fontSize=11;fillColor=none;strokeOpacity=100;fillOpacity=100;" vertex="1" parent="cxxOy_mN2csLwImhf0tn-55">
          <mxGeometry x="93.28264389165169" y="24" width="50.71735610834831" height="19.2" as="geometry" />
        </mxCell>
        <mxCell id="cxxOy_mN2csLwImhf0tn-58" value="foreignLanguage" style="strokeColor=none;part=1;resizeHeight=0;align=center;verticalAlign=top;spacingLeft=4;spacingRight=4;overflow=hidden;rotatable=0;points=[[0,0.5],[1,0.5]];portConstraint=eastwest;html=1;swimlaneFillColor=#ffffff;fontSize=11;fontColor=#000000;fillColor=none;strokeOpacity=100;fillOpacity=100;" vertex="1" parent="cxxOy_mN2csLwImhf0tn-55">
          <mxGeometry y="43.2" width="93.28264389165169" height="19.2" as="geometry" />
        </mxCell>
        <mxCell id="cxxOy_mN2csLwImhf0tn-59" value="String" style="shape=partialRectangle;top=0;right=0;bottom=0;part=1;resizeHeight=0;align=left;verticalAlign=top;spacingLeft=4;spacingRight=4;overflow=hidden;rotatable=0;points=[[0,0.5],[1,0.5]];portConstraint=eastwest;html=1;swimlaneFillColor=#ffffff;fontSize=11;fontColor=#000000;fillColor=none;strokeOpacity=100;fillOpacity=100;" vertex="1" parent="cxxOy_mN2csLwImhf0tn-55">
          <mxGeometry x="93.28264389165169" y="43.2" width="50.71735610834831" height="19.2" as="geometry" />
        </mxCell>
        <mxCell id="cxxOy_mN2csLwImhf0tn-60" value="removal" style="strokeColor=none;part=1;resizeHeight=0;align=center;verticalAlign=top;spacingLeft=4;spacingRight=4;overflow=hidden;rotatable=0;points=[[0,0.5],[1,0.5]];portConstraint=eastwest;html=1;swimlaneFillColor=#ffffff;fontSize=11;fontColor=#000000;fillColor=none;strokeOpacity=100;fillOpacity=100;" vertex="1" parent="cxxOy_mN2csLwImhf0tn-55">
          <mxGeometry y="62.400000000000006" width="93.28264389165169" height="19.2" as="geometry" />
        </mxCell>
        <mxCell id="cxxOy_mN2csLwImhf0tn-61" value="Number" style="shape=partialRectangle;top=0;right=0;bottom=0;part=1;resizeHeight=0;align=left;verticalAlign=top;spacingLeft=4;spacingRight=4;overflow=hidden;rotatable=0;points=[[0,0.5],[1,0.5]];portConstraint=eastwest;html=1;swimlaneFillColor=#ffffff;fontSize=11;fillColor=none;strokeOpacity=100;fillOpacity=100;" vertex="1" parent="cxxOy_mN2csLwImhf0tn-55">
          <mxGeometry x="93.28264389165169" y="62.400000000000006" width="50.71735610834831" height="19.2" as="geometry" />
        </mxCell>
        <mxCell id="cxxOy_mN2csLwImhf0tn-62" value="time_jobs " style="strokeColor=none;part=1;resizeHeight=0;align=center;verticalAlign=top;spacingLeft=4;spacingRight=4;overflow=hidden;rotatable=0;points=[[0,0.5],[1,0.5]];portConstraint=eastwest;html=1;swimlaneFillColor=#ffffff;fontSize=11;fillColor=none;strokeOpacity=100;fillOpacity=100;" vertex="1" parent="cxxOy_mN2csLwImhf0tn-55">
          <mxGeometry y="81.60000000000001" width="93.28264389165169" height="19.2" as="geometry" />
        </mxCell>
        <mxCell id="cxxOy_mN2csLwImhf0tn-63" value="Number" style="shape=partialRectangle;top=0;right=0;bottom=0;part=1;resizeHeight=0;align=left;verticalAlign=top;spacingLeft=4;spacingRight=4;overflow=hidden;rotatable=0;points=[[0,0.5],[1,0.5]];portConstraint=eastwest;html=1;swimlaneFillColor=#ffffff;fontSize=11;fillColor=none;strokeOpacity=100;fillOpacity=100;" vertex="1" parent="cxxOy_mN2csLwImhf0tn-55">
          <mxGeometry x="93.28264389165169" y="81.60000000000001" width="50.71735610834831" height="19.2" as="geometry" />
        </mxCell>
        <mxCell id="cxxOy_mN2csLwImhf0tn-64" value="schedule " style="strokeColor=none;part=1;resizeHeight=0;align=center;verticalAlign=top;spacingLeft=4;spacingRight=4;overflow=hidden;rotatable=0;points=[[0,0.5],[1,0.5]];portConstraint=eastwest;html=1;swimlaneFillColor=#ffffff;fontSize=11;fillColor=none;strokeOpacity=100;fillOpacity=100;" vertex="1" parent="cxxOy_mN2csLwImhf0tn-55">
          <mxGeometry y="100.80000000000001" width="93.28264389165169" height="19.2" as="geometry" />
        </mxCell>
        <mxCell id="cxxOy_mN2csLwImhf0tn-65" value="Number" style="shape=partialRectangle;top=0;right=0;bottom=0;part=1;resizeHeight=0;align=left;verticalAlign=top;spacingLeft=4;spacingRight=4;overflow=hidden;rotatable=0;points=[[0,0.5],[1,0.5]];portConstraint=eastwest;html=1;swimlaneFillColor=#ffffff;fontSize=11;fillColor=none;strokeOpacity=100;fillOpacity=100;" vertex="1" parent="cxxOy_mN2csLwImhf0tn-55">
          <mxGeometry x="93.28264389165169" y="100.80000000000001" width="50.71735610834831" height="19.2" as="geometry" />
        </mxCell>
        <mxCell id="cxxOy_mN2csLwImhf0tn-66" value="driver_license" style="strokeColor=none;part=1;resizeHeight=0;align=center;verticalAlign=top;spacingLeft=4;spacingRight=4;overflow=hidden;rotatable=0;points=[[0,0.5],[1,0.5]];portConstraint=eastwest;html=1;swimlaneFillColor=#ffffff;fontSize=11;fillColor=none;strokeOpacity=100;fillOpacity=100;" vertex="1" parent="cxxOy_mN2csLwImhf0tn-55">
          <mxGeometry y="120.00000000000001" width="93.28264389165169" height="19.2" as="geometry" />
        </mxCell>
        <mxCell id="cxxOy_mN2csLwImhf0tn-67" value="String" style="shape=partialRectangle;top=0;right=0;bottom=0;part=1;resizeHeight=0;align=left;verticalAlign=top;spacingLeft=4;spacingRight=4;overflow=hidden;rotatable=0;points=[[0,0.5],[1,0.5]];portConstraint=eastwest;html=1;swimlaneFillColor=#ffffff;fontSize=11;fillColor=none;strokeOpacity=100;fillOpacity=100;" vertex="1" parent="cxxOy_mN2csLwImhf0tn-55">
          <mxGeometry x="93.28264389165169" y="120.00000000000001" width="50.71735610834831" height="19.2" as="geometry" />
        </mxCell>
        <mxCell id="cxxOy_mN2csLwImhf0tn-68" value="availability_of_car" style="strokeColor=none;part=1;resizeHeight=0;align=center;verticalAlign=top;spacingLeft=4;spacingRight=4;overflow=hidden;rotatable=0;points=[[0,0.5],[1,0.5]];portConstraint=eastwest;html=1;swimlaneFillColor=#ffffff;fontSize=11;fillColor=none;strokeOpacity=100;fillOpacity=100;" vertex="1" parent="cxxOy_mN2csLwImhf0tn-55">
          <mxGeometry y="139.20000000000002" width="93.28264389165169" height="19.2" as="geometry" />
        </mxCell>
        <mxCell id="cxxOy_mN2csLwImhf0tn-69" value="Boolean" style="shape=partialRectangle;top=0;right=0;bottom=0;part=1;resizeHeight=0;align=left;verticalAlign=top;spacingLeft=4;spacingRight=4;overflow=hidden;rotatable=0;points=[[0,0.5],[1,0.5]];portConstraint=eastwest;html=1;swimlaneFillColor=#ffffff;fontSize=11;fillColor=none;strokeOpacity=100;fillOpacity=100;" vertex="1" parent="cxxOy_mN2csLwImhf0tn-55">
          <mxGeometry x="93.28264389165169" y="139.20000000000002" width="50.71735610834831" height="19.2" as="geometry" />
        </mxCell>
        <mxCell id="cxxOy_mN2csLwImhf0tn-70" value="vacancy_review" style="html=1;overflow=block;whiteSpace=wrap;swimlane;resizeParent=1;resizeParentMax=0;resizeLast=0;collapsible=1;marginBottom=0;swimlaneFillColor=#ffffff;startSize=24;whiteSpace=wrap;fontSize=11;fontColor=#000000;align=left;fillColor=#ffffff;whiteSpace=wrap;spacing=0;strokeOpacity=100;fillOpacity=100;rounded=1;absoluteArcSize=1;arcSize=6;whiteSpace=wrap;whiteSpace=wrap;whiteSpace=wrap;whiteSpace=wrap;whiteSpace=wrap;" vertex="1" zOrder="14" parent="1">
          <mxGeometry x="516" y="684" width="156" height="120" as="geometry" />
        </mxCell>
        <mxCell id="cxxOy_mN2csLwImhf0tn-71" value="vacancyReviewId " style="strokeColor=none;part=1;resizeHeight=0;align=center;verticalAlign=top;spacingLeft=4;spacingRight=4;overflow=hidden;rotatable=0;points=[[0,0.5],[1,0.5]];portConstraint=eastwest;html=1;swimlaneFillColor=#ffffff;fontSize=11;fontColor=#000000;fillColor=none;strokeOpacity=100;fillOpacity=100;" vertex="1" parent="cxxOy_mN2csLwImhf0tn-70">
          <mxGeometry y="24" width="100.5231541687092" height="19.2" as="geometry" />
        </mxCell>
        <mxCell id="cxxOy_mN2csLwImhf0tn-72" value="Number" style="shape=partialRectangle;top=0;right=0;bottom=0;part=1;resizeHeight=0;align=left;verticalAlign=top;spacingLeft=4;spacingRight=4;overflow=hidden;rotatable=0;points=[[0,0.5],[1,0.5]];portConstraint=eastwest;html=1;swimlaneFillColor=#ffffff;fontSize=11;fillColor=none;strokeOpacity=100;fillOpacity=100;" vertex="1" parent="cxxOy_mN2csLwImhf0tn-70">
          <mxGeometry x="100.5231541687092" y="24" width="55.4768458312908" height="19.2" as="geometry" />
        </mxCell>
        <mxCell id="cxxOy_mN2csLwImhf0tn-73" value="studentId " style="strokeColor=none;part=1;resizeHeight=0;align=center;verticalAlign=top;spacingLeft=4;spacingRight=4;overflow=hidden;rotatable=0;points=[[0,0.5],[1,0.5]];portConstraint=eastwest;html=1;swimlaneFillColor=#ffffff;fontSize=11;fontColor=#000000;fillColor=none;strokeOpacity=100;fillOpacity=100;" vertex="1" parent="cxxOy_mN2csLwImhf0tn-70">
          <mxGeometry y="43.2" width="100.5231541687092" height="19.2" as="geometry" />
        </mxCell>
        <mxCell id="cxxOy_mN2csLwImhf0tn-74" value="Number" style="shape=partialRectangle;top=0;right=0;bottom=0;part=1;resizeHeight=0;align=left;verticalAlign=top;spacingLeft=4;spacingRight=4;overflow=hidden;rotatable=0;points=[[0,0.5],[1,0.5]];portConstraint=eastwest;html=1;swimlaneFillColor=#ffffff;fontSize=11;fillColor=none;strokeOpacity=100;fillOpacity=100;" vertex="1" parent="cxxOy_mN2csLwImhf0tn-70">
          <mxGeometry x="100.5231541687092" y="43.2" width="55.4768458312908" height="19.2" as="geometry" />
        </mxCell>
        <mxCell id="cxxOy_mN2csLwImhf0tn-75" value="vacancyId " style="strokeColor=none;part=1;resizeHeight=0;align=center;verticalAlign=top;spacingLeft=4;spacingRight=4;overflow=hidden;rotatable=0;points=[[0,0.5],[1,0.5]];portConstraint=eastwest;html=1;swimlaneFillColor=#ffffff;fontSize=11;fontColor=#000000;fillColor=none;strokeOpacity=100;fillOpacity=100;" vertex="1" parent="cxxOy_mN2csLwImhf0tn-70">
          <mxGeometry y="62.400000000000006" width="100.5231541687092" height="19.2" as="geometry" />
        </mxCell>
        <mxCell id="cxxOy_mN2csLwImhf0tn-76" value="Number" style="shape=partialRectangle;top=0;right=0;bottom=0;part=1;resizeHeight=0;align=left;verticalAlign=top;spacingLeft=4;spacingRight=4;overflow=hidden;rotatable=0;points=[[0,0.5],[1,0.5]];portConstraint=eastwest;html=1;swimlaneFillColor=#ffffff;fontSize=11;fillColor=none;strokeOpacity=100;fillOpacity=100;" vertex="1" parent="cxxOy_mN2csLwImhf0tn-70">
          <mxGeometry x="100.5231541687092" y="62.400000000000006" width="55.4768458312908" height="19.2" as="geometry" />
        </mxCell>
        <mxCell id="cxxOy_mN2csLwImhf0tn-77" value="response " style="strokeColor=none;part=1;resizeHeight=0;align=center;verticalAlign=top;spacingLeft=4;spacingRight=4;overflow=hidden;rotatable=0;points=[[0,0.5],[1,0.5]];portConstraint=eastwest;html=1;swimlaneFillColor=#ffffff;fontSize=11;fillColor=none;strokeOpacity=100;fillOpacity=100;" vertex="1" parent="cxxOy_mN2csLwImhf0tn-70">
          <mxGeometry y="81.60000000000001" width="100.5231541687092" height="19.2" as="geometry" />
        </mxCell>
        <mxCell id="cxxOy_mN2csLwImhf0tn-78" value="Boolean" style="shape=partialRectangle;top=0;right=0;bottom=0;part=1;resizeHeight=0;align=left;verticalAlign=top;spacingLeft=4;spacingRight=4;overflow=hidden;rotatable=0;points=[[0,0.5],[1,0.5]];portConstraint=eastwest;html=1;swimlaneFillColor=#ffffff;fontSize=11;fillColor=none;strokeOpacity=100;fillOpacity=100;" vertex="1" parent="cxxOy_mN2csLwImhf0tn-70">
          <mxGeometry x="100.5231541687092" y="81.60000000000001" width="55.4768458312908" height="19.2" as="geometry" />
        </mxCell>
        <mxCell id="cxxOy_mN2csLwImhf0tn-79" value="message" style="strokeColor=none;part=1;resizeHeight=0;align=center;verticalAlign=top;spacingLeft=4;spacingRight=4;overflow=hidden;rotatable=0;points=[[0,0.5],[1,0.5]];portConstraint=eastwest;html=1;swimlaneFillColor=#ffffff;fontSize=11;fillColor=none;strokeOpacity=100;fillOpacity=100;" vertex="1" parent="cxxOy_mN2csLwImhf0tn-70">
          <mxGeometry y="100.80000000000001" width="100.5231541687092" height="19.2" as="geometry" />
        </mxCell>
        <mxCell id="cxxOy_mN2csLwImhf0tn-80" value="String" style="shape=partialRectangle;top=0;right=0;bottom=0;part=1;resizeHeight=0;align=left;verticalAlign=top;spacingLeft=4;spacingRight=4;overflow=hidden;rotatable=0;points=[[0,0.5],[1,0.5]];portConstraint=eastwest;html=1;swimlaneFillColor=#ffffff;fontSize=11;fillColor=none;strokeOpacity=100;fillOpacity=100;" vertex="1" parent="cxxOy_mN2csLwImhf0tn-70">
          <mxGeometry x="100.5231541687092" y="100.80000000000001" width="55.4768458312908" height="19.2" as="geometry" />
        </mxCell>
        <mxCell id="cxxOy_mN2csLwImhf0tn-81" value="cv_reviews " style="html=1;overflow=block;whiteSpace=wrap;swimlane;resizeParent=1;resizeParentMax=0;resizeLast=0;collapsible=1;marginBottom=0;swimlaneFillColor=#ffffff;startSize=24;whiteSpace=wrap;fontSize=11;fontColor=#000000;align=left;fillColor=#ffffff;whiteSpace=wrap;spacing=0;strokeOpacity=100;fillOpacity=100;rounded=1;absoluteArcSize=1;arcSize=6;whiteSpace=wrap;whiteSpace=wrap;whiteSpace=wrap;whiteSpace=wrap;whiteSpace=wrap;" vertex="1" zOrder="15" parent="1">
          <mxGeometry x="324" y="660" width="144" height="120" as="geometry" />
        </mxCell>
        <mxCell id="cxxOy_mN2csLwImhf0tn-82" value="cv_review_id" style="strokeColor=none;part=1;resizeHeight=0;align=center;verticalAlign=top;spacingLeft=4;spacingRight=4;overflow=hidden;rotatable=0;points=[[0,0.5],[1,0.5]];portConstraint=eastwest;html=1;swimlaneFillColor=#ffffff;fontSize=11;fontColor=#000000;fillColor=none;strokeOpacity=100;fillOpacity=100;" vertex="1" parent="cxxOy_mN2csLwImhf0tn-81">
          <mxGeometry y="24" width="100.5231541687092" height="19.2" as="geometry" />
        </mxCell>
        <mxCell id="cxxOy_mN2csLwImhf0tn-83" value="Number" style="shape=partialRectangle;top=0;right=0;bottom=0;part=1;resizeHeight=0;align=left;verticalAlign=top;spacingLeft=4;spacingRight=4;overflow=hidden;rotatable=0;points=[[0,0.5],[1,0.5]];portConstraint=eastwest;html=1;swimlaneFillColor=#ffffff;fontSize=11;fillColor=none;strokeOpacity=100;fillOpacity=100;" vertex="1" parent="cxxOy_mN2csLwImhf0tn-81">
          <mxGeometry x="100.5231541687092" y="24" width="43.4768458312908" height="19.2" as="geometry" />
        </mxCell>
        <mxCell id="cxxOy_mN2csLwImhf0tn-84" value="cv_id" style="strokeColor=none;part=1;resizeHeight=0;align=center;verticalAlign=top;spacingLeft=4;spacingRight=4;overflow=hidden;rotatable=0;points=[[0,0.5],[1,0.5]];portConstraint=eastwest;html=1;swimlaneFillColor=#ffffff;fontSize=11;fontColor=#000000;fillColor=none;strokeOpacity=100;fillOpacity=100;" vertex="1" parent="cxxOy_mN2csLwImhf0tn-81">
          <mxGeometry y="43.2" width="100.5231541687092" height="19.2" as="geometry" />
        </mxCell>
        <mxCell id="cxxOy_mN2csLwImhf0tn-85" value="Number" style="shape=partialRectangle;top=0;right=0;bottom=0;part=1;resizeHeight=0;align=left;verticalAlign=top;spacingLeft=4;spacingRight=4;overflow=hidden;rotatable=0;points=[[0,0.5],[1,0.5]];portConstraint=eastwest;html=1;swimlaneFillColor=#ffffff;fontSize=11;fillColor=none;strokeOpacity=100;fillOpacity=100;" vertex="1" parent="cxxOy_mN2csLwImhf0tn-81">
          <mxGeometry x="100.5231541687092" y="43.2" width="43.4768458312908" height="19.2" as="geometry" />
        </mxCell>
        <mxCell id="cxxOy_mN2csLwImhf0tn-86" value="employer_id" style="strokeColor=none;part=1;resizeHeight=0;align=center;verticalAlign=top;spacingLeft=4;spacingRight=4;overflow=hidden;rotatable=0;points=[[0,0.5],[1,0.5]];portConstraint=eastwest;html=1;swimlaneFillColor=#ffffff;fontSize=11;fontColor=#000000;fillColor=none;strokeOpacity=100;fillOpacity=100;" vertex="1" parent="cxxOy_mN2csLwImhf0tn-81">
          <mxGeometry y="62.400000000000006" width="100.5231541687092" height="19.2" as="geometry" />
        </mxCell>
        <mxCell id="cxxOy_mN2csLwImhf0tn-87" value="Number" style="shape=partialRectangle;top=0;right=0;bottom=0;part=1;resizeHeight=0;align=left;verticalAlign=top;spacingLeft=4;spacingRight=4;overflow=hidden;rotatable=0;points=[[0,0.5],[1,0.5]];portConstraint=eastwest;html=1;swimlaneFillColor=#ffffff;fontSize=11;fillColor=none;strokeOpacity=100;fillOpacity=100;" vertex="1" parent="cxxOy_mN2csLwImhf0tn-81">
          <mxGeometry x="100.5231541687092" y="62.400000000000006" width="43.4768458312908" height="19.2" as="geometry" />
        </mxCell>
        <mxCell id="cxxOy_mN2csLwImhf0tn-88" value="response " style="strokeColor=none;part=1;resizeHeight=0;align=center;verticalAlign=top;spacingLeft=4;spacingRight=4;overflow=hidden;rotatable=0;points=[[0,0.5],[1,0.5]];portConstraint=eastwest;html=1;swimlaneFillColor=#ffffff;fontSize=11;fillColor=none;strokeOpacity=100;fillOpacity=100;" vertex="1" parent="cxxOy_mN2csLwImhf0tn-81">
          <mxGeometry y="81.60000000000001" width="100.5231541687092" height="19.2" as="geometry" />
        </mxCell>
        <mxCell id="cxxOy_mN2csLwImhf0tn-89" value="Boolean" style="shape=partialRectangle;top=0;right=0;bottom=0;part=1;resizeHeight=0;align=left;verticalAlign=top;spacingLeft=4;spacingRight=4;overflow=hidden;rotatable=0;points=[[0,0.5],[1,0.5]];portConstraint=eastwest;html=1;swimlaneFillColor=#ffffff;fontSize=11;fillColor=none;strokeOpacity=100;fillOpacity=100;" vertex="1" parent="cxxOy_mN2csLwImhf0tn-81">
          <mxGeometry x="100.5231541687092" y="81.60000000000001" width="43.4768458312908" height="19.2" as="geometry" />
        </mxCell>
        <mxCell id="cxxOy_mN2csLwImhf0tn-90" value="message" style="strokeColor=none;part=1;resizeHeight=0;align=center;verticalAlign=top;spacingLeft=4;spacingRight=4;overflow=hidden;rotatable=0;points=[[0,0.5],[1,0.5]];portConstraint=eastwest;html=1;swimlaneFillColor=#ffffff;fontSize=11;fillColor=none;strokeOpacity=100;fillOpacity=100;" vertex="1" parent="cxxOy_mN2csLwImhf0tn-81">
          <mxGeometry y="100.80000000000001" width="100.5231541687092" height="19.2" as="geometry" />
        </mxCell>
        <mxCell id="cxxOy_mN2csLwImhf0tn-91" value="String" style="shape=partialRectangle;top=0;right=0;bottom=0;part=1;resizeHeight=0;align=left;verticalAlign=top;spacingLeft=4;spacingRight=4;overflow=hidden;rotatable=0;points=[[0,0.5],[1,0.5]];portConstraint=eastwest;html=1;swimlaneFillColor=#ffffff;fontSize=11;fillColor=none;strokeOpacity=100;fillOpacity=100;" vertex="1" parent="cxxOy_mN2csLwImhf0tn-81">
          <mxGeometry x="100.5231541687092" y="100.80000000000001" width="43.4768458312908" height="19.2" as="geometry" />
        </mxCell>
        <mxCell id="cxxOy_mN2csLwImhf0tn-92" value="student_evaluations" style="html=1;overflow=block;whiteSpace=wrap;swimlane;resizeParent=1;resizeParentMax=0;resizeLast=0;collapsible=1;marginBottom=0;swimlaneFillColor=#ffffff;startSize=24;whiteSpace=wrap;fontSize=11;fontColor=#000000;align=left;fillColor=#ffffff;whiteSpace=wrap;spacing=0;strokeOpacity=100;fillOpacity=100;rounded=1;absoluteArcSize=1;arcSize=6;whiteSpace=wrap;whiteSpace=wrap;whiteSpace=wrap;whiteSpace=wrap;whiteSpace=wrap;" vertex="1" zOrder="16" parent="1">
          <mxGeometry x="804" y="648" width="144" height="120" as="geometry" />
        </mxCell>
        <mxCell id="cxxOy_mN2csLwImhf0tn-93" value="evaluationId" style="strokeColor=none;part=1;resizeHeight=0;align=center;verticalAlign=top;spacingLeft=4;spacingRight=4;overflow=hidden;rotatable=0;points=[[0,0.5],[1,0.5]];portConstraint=eastwest;html=1;swimlaneFillColor=#ffffff;fontSize=11;fontColor=#000000;fillColor=none;strokeOpacity=100;fillOpacity=100;" vertex="1" parent="cxxOy_mN2csLwImhf0tn-92">
          <mxGeometry y="24" width="100.5231541687092" height="19.2" as="geometry" />
        </mxCell>
        <mxCell id="cxxOy_mN2csLwImhf0tn-94" value="PK" style="shape=partialRectangle;top=0;right=0;bottom=0;part=1;resizeHeight=0;align=left;verticalAlign=top;spacingLeft=4;spacingRight=4;overflow=hidden;rotatable=0;points=[[0,0.5],[1,0.5]];portConstraint=eastwest;html=1;swimlaneFillColor=#ffffff;fontSize=11;fontColor=#000000;fillColor=none;strokeOpacity=100;fillOpacity=100;" vertex="1" parent="cxxOy_mN2csLwImhf0tn-92">
          <mxGeometry x="100.5231541687092" y="24" width="43.4768458312908" height="19.2" as="geometry" />
        </mxCell>
        <mxCell id="cxxOy_mN2csLwImhf0tn-95" value="studentId " style="strokeColor=none;part=1;resizeHeight=0;align=center;verticalAlign=top;spacingLeft=4;spacingRight=4;overflow=hidden;rotatable=0;points=[[0,0.5],[1,0.5]];portConstraint=eastwest;html=1;swimlaneFillColor=#ffffff;fontSize=11;fontColor=#000000;fillColor=none;strokeOpacity=100;fillOpacity=100;" vertex="1" parent="cxxOy_mN2csLwImhf0tn-92">
          <mxGeometry y="43.2" width="100.5231541687092" height="19.2" as="geometry" />
        </mxCell>
        <mxCell id="cxxOy_mN2csLwImhf0tn-96" value="FK" style="shape=partialRectangle;top=0;right=0;bottom=0;part=1;resizeHeight=0;align=left;verticalAlign=top;spacingLeft=4;spacingRight=4;overflow=hidden;rotatable=0;points=[[0,0.5],[1,0.5]];portConstraint=eastwest;html=1;swimlaneFillColor=#ffffff;fontSize=11;fontColor=#000000;fillColor=none;strokeOpacity=100;fillOpacity=100;" vertex="1" parent="cxxOy_mN2csLwImhf0tn-92">
          <mxGeometry x="100.5231541687092" y="43.2" width="43.4768458312908" height="19.2" as="geometry" />
        </mxCell>
        <mxCell id="cxxOy_mN2csLwImhf0tn-97" value="employerId" style="strokeColor=none;part=1;resizeHeight=0;align=center;verticalAlign=top;spacingLeft=4;spacingRight=4;overflow=hidden;rotatable=0;points=[[0,0.5],[1,0.5]];portConstraint=eastwest;html=1;swimlaneFillColor=#ffffff;fontSize=11;fontColor=#000000;fillColor=none;strokeOpacity=100;fillOpacity=100;" vertex="1" parent="cxxOy_mN2csLwImhf0tn-92">
          <mxGeometry y="62.400000000000006" width="100.5231541687092" height="19.2" as="geometry" />
        </mxCell>
        <mxCell id="cxxOy_mN2csLwImhf0tn-98" value="FK" style="shape=partialRectangle;top=0;right=0;bottom=0;part=1;resizeHeight=0;align=left;verticalAlign=top;spacingLeft=4;spacingRight=4;overflow=hidden;rotatable=0;points=[[0,0.5],[1,0.5]];portConstraint=eastwest;html=1;swimlaneFillColor=#ffffff;fontSize=11;fontColor=#000000;fillColor=none;strokeOpacity=100;fillOpacity=100;" vertex="1" parent="cxxOy_mN2csLwImhf0tn-92">
          <mxGeometry x="100.5231541687092" y="62.400000000000006" width="43.4768458312908" height="19.2" as="geometry" />
        </mxCell>
        <mxCell id="cxxOy_mN2csLwImhf0tn-99" value="rating" style="strokeColor=none;part=1;resizeHeight=0;align=center;verticalAlign=top;spacingLeft=4;spacingRight=4;overflow=hidden;rotatable=0;points=[[0,0.5],[1,0.5]];portConstraint=eastwest;html=1;swimlaneFillColor=#ffffff;fontSize=11;fillColor=none;strokeOpacity=100;fillOpacity=100;" vertex="1" parent="cxxOy_mN2csLwImhf0tn-92">
          <mxGeometry y="81.60000000000001" width="100.5231541687092" height="19.2" as="geometry" />
        </mxCell>
        <mxCell id="cxxOy_mN2csLwImhf0tn-100" value="Number" style="shape=partialRectangle;top=0;right=0;bottom=0;part=1;resizeHeight=0;align=left;verticalAlign=top;spacingLeft=4;spacingRight=4;overflow=hidden;rotatable=0;points=[[0,0.5],[1,0.5]];portConstraint=eastwest;html=1;swimlaneFillColor=#ffffff;fontSize=11;fillColor=none;strokeOpacity=100;fillOpacity=100;" vertex="1" parent="cxxOy_mN2csLwImhf0tn-92">
          <mxGeometry x="100.5231541687092" y="81.60000000000001" width="43.4768458312908" height="19.2" as="geometry" />
        </mxCell>
        <mxCell id="cxxOy_mN2csLwImhf0tn-101" value="description" style="strokeColor=none;part=1;resizeHeight=0;align=center;verticalAlign=top;spacingLeft=4;spacingRight=4;overflow=hidden;rotatable=0;points=[[0,0.5],[1,0.5]];portConstraint=eastwest;html=1;swimlaneFillColor=#ffffff;fontSize=11;fillColor=none;strokeOpacity=100;fillOpacity=100;" vertex="1" parent="cxxOy_mN2csLwImhf0tn-92">
          <mxGeometry y="100.80000000000001" width="100.5231541687092" height="19.2" as="geometry" />
        </mxCell>
        <mxCell id="cxxOy_mN2csLwImhf0tn-102" value="String" style="shape=partialRectangle;top=0;right=0;bottom=0;part=1;resizeHeight=0;align=left;verticalAlign=top;spacingLeft=4;spacingRight=4;overflow=hidden;rotatable=0;points=[[0,0.5],[1,0.5]];portConstraint=eastwest;html=1;swimlaneFillColor=#ffffff;fontSize=11;fillColor=none;strokeOpacity=100;fillOpacity=100;" vertex="1" parent="cxxOy_mN2csLwImhf0tn-92">
          <mxGeometry x="100.5231541687092" y="100.80000000000001" width="43.4768458312908" height="19.2" as="geometry" />
        </mxCell>
        <mxCell id="cxxOy_mN2csLwImhf0tn-103" value="employers" style="html=1;overflow=block;whiteSpace=wrap;swimlane;resizeParent=1;resizeParentMax=0;resizeLast=0;collapsible=1;marginBottom=0;swimlaneFillColor=#ffffff;startSize=24;whiteSpace=wrap;fontSize=11;fontColor=#000000;align=left;fillColor=#ffffff;whiteSpace=wrap;spacing=0;strokeOpacity=100;fillOpacity=100;rounded=1;absoluteArcSize=1;arcSize=6;whiteSpace=wrap;whiteSpace=wrap;whiteSpace=wrap;whiteSpace=wrap;whiteSpace=wrap;whiteSpace=wrap;whiteSpace=wrap;whiteSpace=wrap;whiteSpace=wrap;" vertex="1" zOrder="17" parent="1">
          <mxGeometry x="972" y="487" width="156" height="197" as="geometry" />
        </mxCell>
        <mxCell id="cxxOy_mN2csLwImhf0tn-104" value="employerId" style="strokeColor=none;part=1;resizeHeight=0;align=center;verticalAlign=top;spacingLeft=4;spacingRight=4;overflow=hidden;rotatable=0;points=[[0,0.5],[1,0.5]];portConstraint=eastwest;html=1;swimlaneFillColor=#ffffff;fontSize=11;fontColor=#000000;fillColor=none;strokeOpacity=100;fillOpacity=100;" vertex="1" parent="cxxOy_mN2csLwImhf0tn-103">
          <mxGeometry y="24" width="108.8572180101828" height="19.2" as="geometry" />
        </mxCell>
        <mxCell id="cxxOy_mN2csLwImhf0tn-105" value="PK" style="shape=partialRectangle;top=0;right=0;bottom=0;part=1;resizeHeight=0;align=left;verticalAlign=top;spacingLeft=4;spacingRight=4;overflow=hidden;rotatable=0;points=[[0,0.5],[1,0.5]];portConstraint=eastwest;html=1;swimlaneFillColor=#ffffff;fontSize=11;fontColor=#000000;fillColor=none;strokeOpacity=100;fillOpacity=100;" vertex="1" parent="cxxOy_mN2csLwImhf0tn-103">
          <mxGeometry x="108.8572180101828" y="24" width="47.142781989817195" height="19.2" as="geometry" />
        </mxCell>
        <mxCell id="cxxOy_mN2csLwImhf0tn-106" value="companyName " style="strokeColor=none;part=1;resizeHeight=0;align=center;verticalAlign=top;spacingLeft=4;spacingRight=4;overflow=hidden;rotatable=0;points=[[0,0.5],[1,0.5]];portConstraint=eastwest;html=1;swimlaneFillColor=#ffffff;fontSize=11;fillColor=none;strokeOpacity=100;fillOpacity=100;" vertex="1" parent="cxxOy_mN2csLwImhf0tn-103">
          <mxGeometry y="43.2" width="108.8572180101828" height="19.2" as="geometry" />
        </mxCell>
        <mxCell id="cxxOy_mN2csLwImhf0tn-107" value="String" style="shape=partialRectangle;top=0;right=0;bottom=0;part=1;resizeHeight=0;align=left;verticalAlign=top;spacingLeft=4;spacingRight=4;overflow=hidden;rotatable=0;points=[[0,0.5],[1,0.5]];portConstraint=eastwest;html=1;swimlaneFillColor=#ffffff;fontSize=11;fillColor=none;strokeOpacity=100;fillOpacity=100;" vertex="1" parent="cxxOy_mN2csLwImhf0tn-103">
          <mxGeometry x="108.8572180101828" y="43.2" width="47.142781989817195" height="19.2" as="geometry" />
        </mxCell>
        <mxCell id="cxxOy_mN2csLwImhf0tn-108" value="industry" style="strokeColor=none;part=1;resizeHeight=0;align=center;verticalAlign=top;spacingLeft=4;spacingRight=4;overflow=hidden;rotatable=0;points=[[0,0.5],[1,0.5]];portConstraint=eastwest;html=1;swimlaneFillColor=#ffffff;fontSize=11;fillColor=none;strokeOpacity=100;fillOpacity=100;" vertex="1" parent="cxxOy_mN2csLwImhf0tn-103">
          <mxGeometry y="62.400000000000006" width="108.8572180101828" height="19.2" as="geometry" />
        </mxCell>
        <mxCell id="cxxOy_mN2csLwImhf0tn-109" value="String" style="shape=partialRectangle;top=0;right=0;bottom=0;part=1;resizeHeight=0;align=left;verticalAlign=top;spacingLeft=4;spacingRight=4;overflow=hidden;rotatable=0;points=[[0,0.5],[1,0.5]];portConstraint=eastwest;html=1;swimlaneFillColor=#ffffff;fontSize=11;fillColor=none;strokeOpacity=100;fillOpacity=100;" vertex="1" parent="cxxOy_mN2csLwImhf0tn-103">
          <mxGeometry x="108.8572180101828" y="62.400000000000006" width="47.142781989817195" height="19.2" as="geometry" />
        </mxCell>
        <mxCell id="cxxOy_mN2csLwImhf0tn-110" value="numberOfEmployees" style="strokeColor=none;part=1;resizeHeight=0;align=center;verticalAlign=top;spacingLeft=4;spacingRight=4;overflow=hidden;rotatable=0;points=[[0,0.5],[1,0.5]];portConstraint=eastwest;html=1;swimlaneFillColor=#ffffff;fontSize=11;fillColor=none;strokeOpacity=100;fillOpacity=100;" vertex="1" parent="cxxOy_mN2csLwImhf0tn-103">
          <mxGeometry y="81.60000000000001" width="108.8572180101828" height="19.2" as="geometry" />
        </mxCell>
        <mxCell id="cxxOy_mN2csLwImhf0tn-111" value="Number" style="shape=partialRectangle;top=0;right=0;bottom=0;part=1;resizeHeight=0;align=left;verticalAlign=top;spacingLeft=4;spacingRight=4;overflow=hidden;rotatable=0;points=[[0,0.5],[1,0.5]];portConstraint=eastwest;html=1;swimlaneFillColor=#ffffff;fontSize=11;fillColor=none;strokeOpacity=100;fillOpacity=100;" vertex="1" parent="cxxOy_mN2csLwImhf0tn-103">
          <mxGeometry x="108.8572180101828" y="81.60000000000001" width="47.142781989817195" height="19.2" as="geometry" />
        </mxCell>
        <mxCell id="cxxOy_mN2csLwImhf0tn-112" value="BIN" style="strokeColor=none;part=1;resizeHeight=0;align=center;verticalAlign=top;spacingLeft=4;spacingRight=4;overflow=hidden;rotatable=0;points=[[0,0.5],[1,0.5]];portConstraint=eastwest;html=1;swimlaneFillColor=#ffffff;fontSize=11;fillColor=none;strokeOpacity=100;fillOpacity=100;" vertex="1" parent="cxxOy_mN2csLwImhf0tn-103">
          <mxGeometry y="100.80000000000001" width="108.8572180101828" height="19.2" as="geometry" />
        </mxCell>
        <mxCell id="cxxOy_mN2csLwImhf0tn-113" value="Number" style="shape=partialRectangle;top=0;right=0;bottom=0;part=1;resizeHeight=0;align=left;verticalAlign=top;spacingLeft=4;spacingRight=4;overflow=hidden;rotatable=0;points=[[0,0.5],[1,0.5]];portConstraint=eastwest;html=1;swimlaneFillColor=#ffffff;fontSize=11;fillColor=none;strokeOpacity=100;fillOpacity=100;" vertex="1" parent="cxxOy_mN2csLwImhf0tn-103">
          <mxGeometry x="108.8572180101828" y="100.80000000000001" width="47.142781989817195" height="19.2" as="geometry" />
        </mxCell>
        <mxCell id="cxxOy_mN2csLwImhf0tn-114" value="officeAddress" style="strokeColor=none;part=1;resizeHeight=0;align=center;verticalAlign=top;spacingLeft=4;spacingRight=4;overflow=hidden;rotatable=0;points=[[0,0.5],[1,0.5]];portConstraint=eastwest;html=1;swimlaneFillColor=#ffffff;fontSize=11;fillColor=none;strokeOpacity=100;fillOpacity=100;" vertex="1" parent="cxxOy_mN2csLwImhf0tn-103">
          <mxGeometry y="120.00000000000001" width="108.8572180101828" height="19.2" as="geometry" />
        </mxCell>
        <mxCell id="cxxOy_mN2csLwImhf0tn-115" value="String" style="shape=partialRectangle;top=0;right=0;bottom=0;part=1;resizeHeight=0;align=left;verticalAlign=top;spacingLeft=4;spacingRight=4;overflow=hidden;rotatable=0;points=[[0,0.5],[1,0.5]];portConstraint=eastwest;html=1;swimlaneFillColor=#ffffff;fontSize=11;fillColor=none;strokeOpacity=100;fillOpacity=100;" vertex="1" parent="cxxOy_mN2csLwImhf0tn-103">
          <mxGeometry x="108.8572180101828" y="120.00000000000001" width="47.142781989817195" height="19.2" as="geometry" />
        </mxCell>
        <mxCell id="cxxOy_mN2csLwImhf0tn-116" value="phoneOffice" style="strokeColor=none;part=1;resizeHeight=0;align=center;verticalAlign=top;spacingLeft=4;spacingRight=4;overflow=hidden;rotatable=0;points=[[0,0.5],[1,0.5]];portConstraint=eastwest;html=1;swimlaneFillColor=#ffffff;fontSize=11;fillColor=none;strokeOpacity=100;fillOpacity=100;" vertex="1" parent="cxxOy_mN2csLwImhf0tn-103">
          <mxGeometry y="139.20000000000002" width="108.8572180101828" height="19.2" as="geometry" />
        </mxCell>
        <mxCell id="cxxOy_mN2csLwImhf0tn-117" value="String" style="shape=partialRectangle;top=0;right=0;bottom=0;part=1;resizeHeight=0;align=left;verticalAlign=top;spacingLeft=4;spacingRight=4;overflow=hidden;rotatable=0;points=[[0,0.5],[1,0.5]];portConstraint=eastwest;html=1;swimlaneFillColor=#ffffff;fontSize=11;fillColor=none;strokeOpacity=100;fillOpacity=100;" vertex="1" parent="cxxOy_mN2csLwImhf0tn-103">
          <mxGeometry x="108.8572180101828" y="139.20000000000002" width="47.142781989817195" height="19.2" as="geometry" />
        </mxCell>
        <mxCell id="cxxOy_mN2csLwImhf0tn-118" value="companyDescription" style="strokeColor=none;part=1;resizeHeight=0;align=center;verticalAlign=top;spacingLeft=4;spacingRight=4;overflow=hidden;rotatable=0;points=[[0,0.5],[1,0.5]];portConstraint=eastwest;html=1;swimlaneFillColor=#ffffff;fontSize=11;fillColor=none;strokeOpacity=100;fillOpacity=100;" vertex="1" parent="cxxOy_mN2csLwImhf0tn-103">
          <mxGeometry y="158.4" width="108.8572180101828" height="19.2" as="geometry" />
        </mxCell>
        <mxCell id="cxxOy_mN2csLwImhf0tn-119" value="Field" style="shape=partialRectangle;top=0;right=0;bottom=0;part=1;resizeHeight=0;align=left;verticalAlign=top;spacingLeft=4;spacingRight=4;overflow=hidden;rotatable=0;points=[[0,0.5],[1,0.5]];portConstraint=eastwest;html=1;swimlaneFillColor=#ffffff;fontSize=11;fillColor=none;strokeOpacity=100;fillOpacity=100;" vertex="1" parent="cxxOy_mN2csLwImhf0tn-103">
          <mxGeometry x="108.8572180101828" y="158.4" width="47.142781989817195" height="19.2" as="geometry" />
        </mxCell>
        <mxCell id="cxxOy_mN2csLwImhf0tn-120" value="logo" style="strokeColor=none;part=1;resizeHeight=0;align=center;verticalAlign=top;spacingLeft=4;spacingRight=4;overflow=hidden;rotatable=0;points=[[0,0.5],[1,0.5]];portConstraint=eastwest;html=1;swimlaneFillColor=#ffffff;fontSize=11;fillColor=none;strokeOpacity=100;fillOpacity=100;" vertex="1" parent="cxxOy_mN2csLwImhf0tn-103">
          <mxGeometry y="177.6" width="108.8572180101828" height="19.2" as="geometry" />
        </mxCell>
        <mxCell id="cxxOy_mN2csLwImhf0tn-121" value="image" style="shape=partialRectangle;top=0;right=0;bottom=0;part=1;resizeHeight=0;align=left;verticalAlign=top;spacingLeft=4;spacingRight=4;overflow=hidden;rotatable=0;points=[[0,0.5],[1,0.5]];portConstraint=eastwest;html=1;swimlaneFillColor=#ffffff;fontSize=11;fillColor=none;strokeOpacity=100;fillOpacity=100;" vertex="1" parent="cxxOy_mN2csLwImhf0tn-103">
          <mxGeometry x="108.8572180101828" y="177.6" width="47.142781989817195" height="19.2" as="geometry" />
        </mxCell>
        <UserObject label="" lucidchartObjectId="M0_Ha7uvU8sC" id="cxxOy_mN2csLwImhf0tn-122">
          <mxCell style="html=1;jettySize=18;whiteSpace=wrap;fontSize=11;strokeOpacity=100;rounded=1;arcSize=24;edgeStyle=orthogonalEdgeStyle;startArrow=ERone;startSize=16;;endArrow=ERmany;endSize=10;;exitX=-0.003;exitY=0.538;exitPerimeter=0;entryX=1.002;entryY=0.231;entryPerimeter=0;" edge="1" parent="1" source="cxxOy_mN2csLwImhf0tn-27" target="cxxOy_mN2csLwImhf0tn-6">
            <mxGeometry width="100" height="100" relative="1" as="geometry">
              <Array as="points" />
            </mxGeometry>
          </mxCell>
        </UserObject>
        <mxCell id="cxxOy_mN2csLwImhf0tn-123" value="vacancies" style="html=1;overflow=block;whiteSpace=wrap;swimlane;resizeParent=1;resizeParentMax=0;resizeLast=0;collapsible=1;marginBottom=0;swimlaneFillColor=#ffffff;startSize=24;whiteSpace=wrap;fontSize=11;fontColor=#000000;align=left;fillColor=#ffffff;whiteSpace=wrap;spacing=0;strokeOpacity=100;fillOpacity=100;rounded=1;absoluteArcSize=1;arcSize=6;whiteSpace=wrap;whiteSpace=wrap;whiteSpace=wrap;whiteSpace=wrap;whiteSpace=wrap;whiteSpace=wrap;whiteSpace=wrap;whiteSpace=wrap;whiteSpace=wrap;whiteSpace=wrap;whiteSpace=wrap;whiteSpace=wrap;" vertex="1" zOrder="22" parent="1">
          <mxGeometry x="1284" y="607" width="156" height="254" as="geometry" />
        </mxCell>
        <mxCell id="cxxOy_mN2csLwImhf0tn-124" value="vacancyId" style="strokeColor=none;part=1;resizeHeight=0;align=center;verticalAlign=top;spacingLeft=4;spacingRight=4;overflow=hidden;rotatable=0;points=[[0,0.5],[1,0.5]];portConstraint=eastwest;html=1;swimlaneFillColor=#ffffff;fontSize=11;fontColor=#000000;fillColor=none;strokeOpacity=100;fillOpacity=100;" vertex="1" parent="cxxOy_mN2csLwImhf0tn-123">
          <mxGeometry y="24" width="108.8572180101828" height="19.2" as="geometry" />
        </mxCell>
        <mxCell id="cxxOy_mN2csLwImhf0tn-125" value="PK" style="shape=partialRectangle;top=0;right=0;bottom=0;part=1;resizeHeight=0;align=left;verticalAlign=top;spacingLeft=4;spacingRight=4;overflow=hidden;rotatable=0;points=[[0,0.5],[1,0.5]];portConstraint=eastwest;html=1;swimlaneFillColor=#ffffff;fontSize=11;fontColor=#000000;fillColor=none;strokeOpacity=100;fillOpacity=100;" vertex="1" parent="cxxOy_mN2csLwImhf0tn-123">
          <mxGeometry x="108.8572180101828" y="24" width="47.142781989817195" height="19.2" as="geometry" />
        </mxCell>
        <mxCell id="cxxOy_mN2csLwImhf0tn-126" value="nameOfVacancy" style="strokeColor=none;part=1;resizeHeight=0;align=center;verticalAlign=top;spacingLeft=4;spacingRight=4;overflow=hidden;rotatable=0;points=[[0,0.5],[1,0.5]];portConstraint=eastwest;html=1;swimlaneFillColor=#ffffff;fontSize=11;fontColor=#000000;fillColor=none;strokeOpacity=100;fillOpacity=100;" vertex="1" parent="cxxOy_mN2csLwImhf0tn-123">
          <mxGeometry y="43.2" width="108.8572180101828" height="19.2" as="geometry" />
        </mxCell>
        <mxCell id="cxxOy_mN2csLwImhf0tn-127" value="String" style="shape=partialRectangle;top=0;right=0;bottom=0;part=1;resizeHeight=0;align=left;verticalAlign=top;spacingLeft=4;spacingRight=4;overflow=hidden;rotatable=0;points=[[0,0.5],[1,0.5]];portConstraint=eastwest;html=1;swimlaneFillColor=#ffffff;fontSize=11;fontColor=#000000;fillColor=none;strokeOpacity=100;fillOpacity=100;" vertex="1" parent="cxxOy_mN2csLwImhf0tn-123">
          <mxGeometry x="108.8572180101828" y="43.2" width="47.142781989817195" height="19.2" as="geometry" />
        </mxCell>
        <mxCell id="cxxOy_mN2csLwImhf0tn-128" value="duty" style="strokeColor=none;part=1;resizeHeight=0;align=center;verticalAlign=top;spacingLeft=4;spacingRight=4;overflow=hidden;rotatable=0;points=[[0,0.5],[1,0.5]];portConstraint=eastwest;html=1;swimlaneFillColor=#ffffff;fontSize=11;fillColor=none;strokeOpacity=100;fillOpacity=100;" vertex="1" parent="cxxOy_mN2csLwImhf0tn-123">
          <mxGeometry y="62.400000000000006" width="108.8572180101828" height="19.2" as="geometry" />
        </mxCell>
        <mxCell id="cxxOy_mN2csLwImhf0tn-129" value="String" style="shape=partialRectangle;top=0;right=0;bottom=0;part=1;resizeHeight=0;align=left;verticalAlign=top;spacingLeft=4;spacingRight=4;overflow=hidden;rotatable=0;points=[[0,0.5],[1,0.5]];portConstraint=eastwest;html=1;swimlaneFillColor=#ffffff;fontSize=11;fillColor=none;strokeOpacity=100;fillOpacity=100;" vertex="1" parent="cxxOy_mN2csLwImhf0tn-123">
          <mxGeometry x="108.8572180101828" y="62.400000000000006" width="47.142781989817195" height="19.2" as="geometry" />
        </mxCell>
        <mxCell id="cxxOy_mN2csLwImhf0tn-130" value="requirements " style="strokeColor=none;part=1;resizeHeight=0;align=center;verticalAlign=top;spacingLeft=4;spacingRight=4;overflow=hidden;rotatable=0;points=[[0,0.5],[1,0.5]];portConstraint=eastwest;html=1;swimlaneFillColor=#ffffff;fontSize=11;fillColor=none;strokeOpacity=100;fillOpacity=100;" vertex="1" parent="cxxOy_mN2csLwImhf0tn-123">
          <mxGeometry y="81.60000000000001" width="108.8572180101828" height="19.2" as="geometry" />
        </mxCell>
        <mxCell id="cxxOy_mN2csLwImhf0tn-131" value="String" style="shape=partialRectangle;top=0;right=0;bottom=0;part=1;resizeHeight=0;align=left;verticalAlign=top;spacingLeft=4;spacingRight=4;overflow=hidden;rotatable=0;points=[[0,0.5],[1,0.5]];portConstraint=eastwest;html=1;swimlaneFillColor=#ffffff;fontSize=11;fillColor=none;strokeOpacity=100;fillOpacity=100;" vertex="1" parent="cxxOy_mN2csLwImhf0tn-123">
          <mxGeometry x="108.8572180101828" y="81.60000000000001" width="47.142781989817195" height="19.2" as="geometry" />
        </mxCell>
        <mxCell id="cxxOy_mN2csLwImhf0tn-132" value="conditions" style="strokeColor=none;part=1;resizeHeight=0;align=center;verticalAlign=top;spacingLeft=4;spacingRight=4;overflow=hidden;rotatable=0;points=[[0,0.5],[1,0.5]];portConstraint=eastwest;html=1;swimlaneFillColor=#ffffff;fontSize=11;fillColor=none;strokeOpacity=100;fillOpacity=100;" vertex="1" parent="cxxOy_mN2csLwImhf0tn-123">
          <mxGeometry y="100.80000000000001" width="108.8572180101828" height="19.2" as="geometry" />
        </mxCell>
        <mxCell id="cxxOy_mN2csLwImhf0tn-133" value="String" style="shape=partialRectangle;top=0;right=0;bottom=0;part=1;resizeHeight=0;align=left;verticalAlign=top;spacingLeft=4;spacingRight=4;overflow=hidden;rotatable=0;points=[[0,0.5],[1,0.5]];portConstraint=eastwest;html=1;swimlaneFillColor=#ffffff;fontSize=11;fillColor=none;strokeOpacity=100;fillOpacity=100;" vertex="1" parent="cxxOy_mN2csLwImhf0tn-123">
          <mxGeometry x="108.8572180101828" y="100.80000000000001" width="47.142781989817195" height="19.2" as="geometry" />
        </mxCell>
        <mxCell id="cxxOy_mN2csLwImhf0tn-134" value="typeOfEmployement" style="strokeColor=none;part=1;resizeHeight=0;align=center;verticalAlign=top;spacingLeft=4;spacingRight=4;overflow=hidden;rotatable=0;points=[[0,0.5],[1,0.5]];portConstraint=eastwest;html=1;swimlaneFillColor=#ffffff;fontSize=11;fillColor=none;strokeOpacity=100;fillOpacity=100;" vertex="1" parent="cxxOy_mN2csLwImhf0tn-123">
          <mxGeometry y="120.00000000000001" width="108.8572180101828" height="19.2" as="geometry" />
        </mxCell>
        <mxCell id="cxxOy_mN2csLwImhf0tn-135" value="String" style="shape=partialRectangle;top=0;right=0;bottom=0;part=1;resizeHeight=0;align=left;verticalAlign=top;spacingLeft=4;spacingRight=4;overflow=hidden;rotatable=0;points=[[0,0.5],[1,0.5]];portConstraint=eastwest;html=1;swimlaneFillColor=#ffffff;fontSize=11;fillColor=none;strokeOpacity=100;fillOpacity=100;" vertex="1" parent="cxxOy_mN2csLwImhf0tn-123">
          <mxGeometry x="108.8572180101828" y="120.00000000000001" width="47.142781989817195" height="19.2" as="geometry" />
        </mxCell>
        <mxCell id="cxxOy_mN2csLwImhf0tn-136" value="workExperience" style="strokeColor=none;part=1;resizeHeight=0;align=center;verticalAlign=top;spacingLeft=4;spacingRight=4;overflow=hidden;rotatable=0;points=[[0,0.5],[1,0.5]];portConstraint=eastwest;html=1;swimlaneFillColor=#ffffff;fontSize=11;fillColor=none;strokeOpacity=100;fillOpacity=100;" vertex="1" parent="cxxOy_mN2csLwImhf0tn-123">
          <mxGeometry y="139.20000000000002" width="108.8572180101828" height="19.2" as="geometry" />
        </mxCell>
        <mxCell id="cxxOy_mN2csLwImhf0tn-137" value="String" style="shape=partialRectangle;top=0;right=0;bottom=0;part=1;resizeHeight=0;align=left;verticalAlign=top;spacingLeft=4;spacingRight=4;overflow=hidden;rotatable=0;points=[[0,0.5],[1,0.5]];portConstraint=eastwest;html=1;swimlaneFillColor=#ffffff;fontSize=11;fillColor=none;strokeOpacity=100;fillOpacity=100;" vertex="1" parent="cxxOy_mN2csLwImhf0tn-123">
          <mxGeometry x="108.8572180101828" y="139.20000000000002" width="47.142781989817195" height="19.2" as="geometry" />
        </mxCell>
        <mxCell id="cxxOy_mN2csLwImhf0tn-138" value="salary" style="strokeColor=none;part=1;resizeHeight=0;align=center;verticalAlign=top;spacingLeft=4;spacingRight=4;overflow=hidden;rotatable=0;points=[[0,0.5],[1,0.5]];portConstraint=eastwest;html=1;swimlaneFillColor=#ffffff;fontSize=11;fillColor=none;strokeOpacity=100;fillOpacity=100;" vertex="1" parent="cxxOy_mN2csLwImhf0tn-123">
          <mxGeometry y="158.4" width="108.8572180101828" height="19.2" as="geometry" />
        </mxCell>
        <mxCell id="cxxOy_mN2csLwImhf0tn-139" value="Number" style="shape=partialRectangle;top=0;right=0;bottom=0;part=1;resizeHeight=0;align=left;verticalAlign=top;spacingLeft=4;spacingRight=4;overflow=hidden;rotatable=0;points=[[0,0.5],[1,0.5]];portConstraint=eastwest;html=1;swimlaneFillColor=#ffffff;fontSize=11;fillColor=none;strokeOpacity=100;fillOpacity=100;" vertex="1" parent="cxxOy_mN2csLwImhf0tn-123">
          <mxGeometry x="108.8572180101828" y="158.4" width="47.142781989817195" height="19.2" as="geometry" />
        </mxCell>
        <mxCell id="cxxOy_mN2csLwImhf0tn-140" value="city" style="strokeColor=none;part=1;resizeHeight=0;align=center;verticalAlign=top;spacingLeft=4;spacingRight=4;overflow=hidden;rotatable=0;points=[[0,0.5],[1,0.5]];portConstraint=eastwest;html=1;swimlaneFillColor=#ffffff;fontSize=11;fillColor=none;strokeOpacity=100;fillOpacity=100;" vertex="1" parent="cxxOy_mN2csLwImhf0tn-123">
          <mxGeometry y="177.6" width="108.8572180101828" height="19.2" as="geometry" />
        </mxCell>
        <mxCell id="cxxOy_mN2csLwImhf0tn-141" value="String" style="shape=partialRectangle;top=0;right=0;bottom=0;part=1;resizeHeight=0;align=left;verticalAlign=top;spacingLeft=4;spacingRight=4;overflow=hidden;rotatable=0;points=[[0,0.5],[1,0.5]];portConstraint=eastwest;html=1;swimlaneFillColor=#ffffff;fontSize=11;fillColor=none;strokeOpacity=100;fillOpacity=100;" vertex="1" parent="cxxOy_mN2csLwImhf0tn-123">
          <mxGeometry x="108.8572180101828" y="177.6" width="47.142781989817195" height="19.2" as="geometry" />
        </mxCell>
        <mxCell id="cxxOy_mN2csLwImhf0tn-142" value="street" style="strokeColor=none;part=1;resizeHeight=0;align=center;verticalAlign=top;spacingLeft=4;spacingRight=4;overflow=hidden;rotatable=0;points=[[0,0.5],[1,0.5]];portConstraint=eastwest;html=1;swimlaneFillColor=#ffffff;fontSize=11;fillColor=none;strokeOpacity=100;fillOpacity=100;" vertex="1" parent="cxxOy_mN2csLwImhf0tn-123">
          <mxGeometry y="196.79999999999998" width="108.8572180101828" height="19.2" as="geometry" />
        </mxCell>
        <mxCell id="cxxOy_mN2csLwImhf0tn-143" value="String" style="shape=partialRectangle;top=0;right=0;bottom=0;part=1;resizeHeight=0;align=left;verticalAlign=top;spacingLeft=4;spacingRight=4;overflow=hidden;rotatable=0;points=[[0,0.5],[1,0.5]];portConstraint=eastwest;html=1;swimlaneFillColor=#ffffff;fontSize=11;fillColor=none;strokeOpacity=100;fillOpacity=100;" vertex="1" parent="cxxOy_mN2csLwImhf0tn-123">
          <mxGeometry x="108.8572180101828" y="196.79999999999998" width="47.142781989817195" height="19.2" as="geometry" />
        </mxCell>
        <mxCell id="cxxOy_mN2csLwImhf0tn-144" value="house" style="strokeColor=none;part=1;resizeHeight=0;align=center;verticalAlign=top;spacingLeft=4;spacingRight=4;overflow=hidden;rotatable=0;points=[[0,0.5],[1,0.5]];portConstraint=eastwest;html=1;swimlaneFillColor=#ffffff;fontSize=11;fillColor=none;strokeOpacity=100;fillOpacity=100;" vertex="1" parent="cxxOy_mN2csLwImhf0tn-123">
          <mxGeometry y="215.99999999999997" width="108.8572180101828" height="19.2" as="geometry" />
        </mxCell>
        <mxCell id="cxxOy_mN2csLwImhf0tn-145" value="String" style="shape=partialRectangle;top=0;right=0;bottom=0;part=1;resizeHeight=0;align=left;verticalAlign=top;spacingLeft=4;spacingRight=4;overflow=hidden;rotatable=0;points=[[0,0.5],[1,0.5]];portConstraint=eastwest;html=1;swimlaneFillColor=#ffffff;fontSize=11;fillColor=none;strokeOpacity=100;fillOpacity=100;" vertex="1" parent="cxxOy_mN2csLwImhf0tn-123">
          <mxGeometry x="108.8572180101828" y="215.99999999999997" width="47.142781989817195" height="19.2" as="geometry" />
        </mxCell>
        <mxCell id="cxxOy_mN2csLwImhf0tn-146" value="office" style="strokeColor=none;part=1;resizeHeight=0;align=center;verticalAlign=top;spacingLeft=4;spacingRight=4;overflow=hidden;rotatable=0;points=[[0,0.5],[1,0.5]];portConstraint=eastwest;html=1;swimlaneFillColor=#ffffff;fontSize=11;fillColor=none;strokeOpacity=100;fillOpacity=100;" vertex="1" parent="cxxOy_mN2csLwImhf0tn-123">
          <mxGeometry y="235.19999999999996" width="108.8572180101828" height="19.2" as="geometry" />
        </mxCell>
        <mxCell id="cxxOy_mN2csLwImhf0tn-147" value="String" style="shape=partialRectangle;top=0;right=0;bottom=0;part=1;resizeHeight=0;align=left;verticalAlign=top;spacingLeft=4;spacingRight=4;overflow=hidden;rotatable=0;points=[[0,0.5],[1,0.5]];portConstraint=eastwest;html=1;swimlaneFillColor=#ffffff;fontSize=11;fillColor=none;strokeOpacity=100;fillOpacity=100;" vertex="1" parent="cxxOy_mN2csLwImhf0tn-123">
          <mxGeometry x="108.8572180101828" y="235.19999999999996" width="47.142781989817195" height="19.2" as="geometry" />
        </mxCell>
        <UserObject label="" lucidchartObjectId="Qc.HtEfAns6." id="cxxOy_mN2csLwImhf0tn-148">
          <mxCell style="html=1;jettySize=18;whiteSpace=wrap;fontSize=11;strokeOpacity=100;rounded=1;arcSize=24;edgeStyle=orthogonalEdgeStyle;startArrow=ERone;startSize=16;;endArrow=ERmany;endSize=10;;exitX=1.003;exitY=0.539;exitPerimeter=0;entryX=-0.002;entryY=0.343;entryPerimeter=0;" edge="1" parent="1" source="cxxOy_mN2csLwImhf0tn-1" target="cxxOy_mN2csLwImhf0tn-6">
            <mxGeometry width="100" height="100" relative="1" as="geometry">
              <Array as="points" />
            </mxGeometry>
          </mxCell>
        </UserObject>
        <mxCell id="cxxOy_mN2csLwImhf0tn-149" value="educations" style="html=1;overflow=block;whiteSpace=wrap;swimlane;resizeParent=1;resizeParentMax=0;resizeLast=0;collapsible=1;marginBottom=0;swimlaneFillColor=#ffffff;startSize=24;whiteSpace=wrap;fontSize=11;fontColor=#000000;align=left;fillColor=#ffffff;whiteSpace=wrap;spacing=0;strokeOpacity=100;fillOpacity=100;rounded=1;absoluteArcSize=1;arcSize=6;whiteSpace=wrap;whiteSpace=wrap;whiteSpace=wrap;whiteSpace=wrap;" vertex="1" zOrder="25" parent="1">
          <mxGeometry x="108" y="316" width="120" height="101" as="geometry" />
        </mxCell>
        <mxCell id="cxxOy_mN2csLwImhf0tn-150" value="educationId" style="strokeColor=none;part=1;resizeHeight=0;align=center;verticalAlign=top;spacingLeft=4;spacingRight=4;overflow=hidden;rotatable=0;points=[[0,0.5],[1,0.5]];portConstraint=eastwest;html=1;swimlaneFillColor=#ffffff;fontSize=11;fontColor=#000000;fillColor=none;strokeOpacity=100;fillOpacity=100;" vertex="1" parent="cxxOy_mN2csLwImhf0tn-149">
          <mxGeometry y="24" width="66.25920528608783" height="19.2" as="geometry" />
        </mxCell>
        <mxCell id="cxxOy_mN2csLwImhf0tn-151" value="PK" style="shape=partialRectangle;top=0;right=0;bottom=0;part=1;resizeHeight=0;align=left;verticalAlign=top;spacingLeft=4;spacingRight=4;overflow=hidden;rotatable=0;points=[[0,0.5],[1,0.5]];portConstraint=eastwest;html=1;swimlaneFillColor=#ffffff;fontSize=11;fontColor=#000000;fillColor=none;strokeOpacity=100;fillOpacity=100;" vertex="1" parent="cxxOy_mN2csLwImhf0tn-149">
          <mxGeometry x="66.25920528608783" y="24" width="53.740794713912166" height="19.2" as="geometry" />
        </mxCell>
        <mxCell id="cxxOy_mN2csLwImhf0tn-152" value="cvId" style="strokeColor=none;part=1;resizeHeight=0;align=center;verticalAlign=top;spacingLeft=4;spacingRight=4;overflow=hidden;rotatable=0;points=[[0,0.5],[1,0.5]];portConstraint=eastwest;html=1;swimlaneFillColor=#ffffff;fontSize=11;fontColor=#000000;fillColor=none;strokeOpacity=100;fillOpacity=100;" vertex="1" parent="cxxOy_mN2csLwImhf0tn-149">
          <mxGeometry y="43.2" width="66.25920528608783" height="19.2" as="geometry" />
        </mxCell>
        <mxCell id="cxxOy_mN2csLwImhf0tn-153" value="FK" style="shape=partialRectangle;top=0;right=0;bottom=0;part=1;resizeHeight=0;align=left;verticalAlign=top;spacingLeft=4;spacingRight=4;overflow=hidden;rotatable=0;points=[[0,0.5],[1,0.5]];portConstraint=eastwest;html=1;swimlaneFillColor=#ffffff;fontSize=11;fontColor=#000000;fillColor=none;strokeOpacity=100;fillOpacity=100;" vertex="1" parent="cxxOy_mN2csLwImhf0tn-149">
          <mxGeometry x="66.25920528608783" y="43.2" width="53.740794713912166" height="19.2" as="geometry" />
        </mxCell>
        <mxCell id="cxxOy_mN2csLwImhf0tn-154" value="instituion" style="strokeColor=none;part=1;resizeHeight=0;align=center;verticalAlign=top;spacingLeft=4;spacingRight=4;overflow=hidden;rotatable=0;points=[[0,0.5],[1,0.5]];portConstraint=eastwest;html=1;swimlaneFillColor=#ffffff;fontSize=11;fontColor=#000000;fillColor=none;strokeOpacity=100;fillOpacity=100;" vertex="1" parent="cxxOy_mN2csLwImhf0tn-149">
          <mxGeometry y="62.400000000000006" width="66.25920528608783" height="19.2" as="geometry" />
        </mxCell>
        <mxCell id="cxxOy_mN2csLwImhf0tn-155" value="String" style="shape=partialRectangle;top=0;right=0;bottom=0;part=1;resizeHeight=0;align=left;verticalAlign=top;spacingLeft=4;spacingRight=4;overflow=hidden;rotatable=0;points=[[0,0.5],[1,0.5]];portConstraint=eastwest;html=1;swimlaneFillColor=#ffffff;fontSize=11;fontColor=#000000;fillColor=none;strokeOpacity=100;fillOpacity=100;" vertex="1" parent="cxxOy_mN2csLwImhf0tn-149">
          <mxGeometry x="66.25920528608783" y="62.400000000000006" width="53.740794713912166" height="19.2" as="geometry" />
        </mxCell>
        <mxCell id="cxxOy_mN2csLwImhf0tn-156" value="degree" style="strokeColor=none;part=1;resizeHeight=0;align=center;verticalAlign=top;spacingLeft=4;spacingRight=4;overflow=hidden;rotatable=0;points=[[0,0.5],[1,0.5]];portConstraint=eastwest;html=1;swimlaneFillColor=#ffffff;fontSize=11;fillColor=none;strokeOpacity=100;fillOpacity=100;" vertex="1" parent="cxxOy_mN2csLwImhf0tn-149">
          <mxGeometry y="81.60000000000001" width="66.25920528608783" height="19.2" as="geometry" />
        </mxCell>
        <mxCell id="cxxOy_mN2csLwImhf0tn-157" value="String" style="shape=partialRectangle;top=0;right=0;bottom=0;part=1;resizeHeight=0;align=left;verticalAlign=top;spacingLeft=4;spacingRight=4;overflow=hidden;rotatable=0;points=[[0,0.5],[1,0.5]];portConstraint=eastwest;html=1;swimlaneFillColor=#ffffff;fontSize=11;fillColor=none;strokeOpacity=100;fillOpacity=100;" vertex="1" parent="cxxOy_mN2csLwImhf0tn-149">
          <mxGeometry x="66.25920528608783" y="81.60000000000001" width="53.740794713912166" height="19.2" as="geometry" />
        </mxCell>
        <UserObject label="" lucidchartObjectId="xD.HEHU45AHz" id="cxxOy_mN2csLwImhf0tn-158">
          <mxCell style="html=1;jettySize=18;whiteSpace=wrap;fontSize=11;strokeOpacity=100;rounded=1;arcSize=24;edgeStyle=orthogonalEdgeStyle;startArrow=ERone;startSize=16;;endArrow=ERmany;endSize=10;;exitX=1.003;exitY=0.524;exitPerimeter=0;entryX=-0.002;entryY=0.143;entryPerimeter=0;" edge="1" parent="1" source="cxxOy_mN2csLwImhf0tn-149" target="cxxOy_mN2csLwImhf0tn-32">
            <mxGeometry width="100" height="100" relative="1" as="geometry">
              <Array as="points" />
            </mxGeometry>
          </mxCell>
        </UserObject>
        <UserObject label="" lucidchartObjectId="4E.HVoDFbRR-" id="cxxOy_mN2csLwImhf0tn-159">
          <mxCell style="html=1;jettySize=18;whiteSpace=wrap;fontSize=11;strokeOpacity=100;rounded=1;arcSize=24;edgeStyle=orthogonalEdgeStyle;startArrow=ERone;startSize=16;;endArrow=ERmany;endSize=10;;exitX=-0.002;exitY=0.171;exitPerimeter=0;entryX=1.002;entryY=0.342;entryPerimeter=0;" edge="1" parent="1" source="cxxOy_mN2csLwImhf0tn-103" target="cxxOy_mN2csLwImhf0tn-6">
            <mxGeometry width="100" height="100" relative="1" as="geometry">
              <Array as="points" />
            </mxGeometry>
          </mxCell>
        </UserObject>
        <mxCell id="cxxOy_mN2csLwImhf0tn-160" value="employers_vacancies" style="html=1;overflow=block;whiteSpace=wrap;swimlane;resizeParent=1;resizeParentMax=0;resizeLast=0;collapsible=1;marginBottom=0;swimlaneFillColor=#ffffff;startSize=24;whiteSpace=wrap;fontSize=11;fontColor=#000000;align=left;fillColor=#ffffff;whiteSpace=wrap;spacing=0;strokeOpacity=100;fillOpacity=100;rounded=1;absoluteArcSize=1;arcSize=6;" vertex="1" zOrder="33" parent="1">
          <mxGeometry x="1224" y="432" width="180" height="82" as="geometry" />
        </mxCell>
        <mxCell id="cxxOy_mN2csLwImhf0tn-161" value="employersVacanciesId" style="strokeColor=none;part=1;resizeHeight=0;align=left;verticalAlign=top;spacingLeft=4;spacingRight=4;overflow=hidden;rotatable=0;points=[[0,0.5],[1,0.5]];portConstraint=eastwest;swimlaneFillColor=#ffffff;fontSize=11;fontColor=#000000;fillColor=none;strokeOpacity=100;fillOpacity=100;whiteSpace=wrap;spacing=0;rounded=1;absoluteArcSize=1;arcSize=6;" vertex="1" parent="cxxOy_mN2csLwImhf0tn-160">
          <mxGeometry y="24" width="136.94890184829617" height="19.2" as="geometry" />
        </mxCell>
        <mxCell id="cxxOy_mN2csLwImhf0tn-162" value="PK" style="shape=partialRectangle;top=0;right=0;bottom=0;part=1;resizeHeight=0;align=left;verticalAlign=top;spacingLeft=4;spacingRight=4;overflow=hidden;rotatable=0;points=[[0,0.5],[1,0.5]];portConstraint=eastwest;swimlaneFillColor=#ffffff;fontSize=11;fontColor=#000000;fillColor=none;strokeOpacity=100;fillOpacity=100;whiteSpace=wrap;spacing=0;rounded=1;absoluteArcSize=1;arcSize=6;" vertex="1" parent="cxxOy_mN2csLwImhf0tn-160">
          <mxGeometry x="136.94890184829617" y="24" width="43.051098151703826" height="19.2" as="geometry" />
        </mxCell>
        <mxCell id="cxxOy_mN2csLwImhf0tn-163" value="employerId" style="strokeColor=none;part=1;resizeHeight=0;align=left;verticalAlign=top;spacingLeft=4;spacingRight=4;overflow=hidden;rotatable=0;points=[[0,0.5],[1,0.5]];portConstraint=eastwest;swimlaneFillColor=#ffffff;fontSize=11;fontColor=#000000;fillColor=none;strokeOpacity=100;fillOpacity=100;whiteSpace=wrap;spacing=0;rounded=1;absoluteArcSize=1;arcSize=6;" vertex="1" parent="cxxOy_mN2csLwImhf0tn-160">
          <mxGeometry y="43.2" width="136.94890184829617" height="19.2" as="geometry" />
        </mxCell>
        <mxCell id="cxxOy_mN2csLwImhf0tn-164" value="FK" style="shape=partialRectangle;top=0;right=0;bottom=0;part=1;resizeHeight=0;align=left;verticalAlign=top;spacingLeft=4;spacingRight=4;overflow=hidden;rotatable=0;points=[[0,0.5],[1,0.5]];portConstraint=eastwest;swimlaneFillColor=#ffffff;fontSize=11;fontColor=#000000;fillColor=none;strokeOpacity=100;fillOpacity=100;whiteSpace=wrap;spacing=0;rounded=1;absoluteArcSize=1;arcSize=6;" vertex="1" parent="cxxOy_mN2csLwImhf0tn-160">
          <mxGeometry x="136.94890184829617" y="43.2" width="43.051098151703826" height="19.2" as="geometry" />
        </mxCell>
        <mxCell id="cxxOy_mN2csLwImhf0tn-165" value="vacancyId" style="strokeColor=none;part=1;resizeHeight=0;align=left;verticalAlign=top;spacingLeft=4;spacingRight=4;overflow=hidden;rotatable=0;points=[[0,0.5],[1,0.5]];portConstraint=eastwest;swimlaneFillColor=#ffffff;fontSize=11;fontColor=#000000;fillColor=none;strokeOpacity=100;fillOpacity=100;whiteSpace=wrap;spacing=0;rounded=1;absoluteArcSize=1;arcSize=6;" vertex="1" parent="cxxOy_mN2csLwImhf0tn-160">
          <mxGeometry y="62.400000000000006" width="136.94890184829617" height="19.2" as="geometry" />
        </mxCell>
        <mxCell id="cxxOy_mN2csLwImhf0tn-166" value="FK" style="shape=partialRectangle;top=0;right=0;bottom=0;part=1;resizeHeight=0;align=left;verticalAlign=top;spacingLeft=4;spacingRight=4;overflow=hidden;rotatable=0;points=[[0,0.5],[1,0.5]];portConstraint=eastwest;swimlaneFillColor=#ffffff;fontSize=11;fontColor=#000000;fillColor=none;strokeOpacity=100;fillOpacity=100;whiteSpace=wrap;spacing=0;rounded=1;absoluteArcSize=1;arcSize=6;" vertex="1" parent="cxxOy_mN2csLwImhf0tn-160">
          <mxGeometry x="136.94890184829617" y="62.400000000000006" width="43.051098151703826" height="19.2" as="geometry" />
        </mxCell>
        <UserObject label="" lucidchartObjectId="lI.H.qY5I30p" id="cxxOy_mN2csLwImhf0tn-167">
          <mxCell style="html=1;jettySize=18;whiteSpace=wrap;fontSize=11;strokeOpacity=100;rounded=1;arcSize=24;edgeStyle=orthogonalEdgeStyle;startArrow=ERone;startSize=16;;endArrow=ERmany;endSize=10;;exitX=-0.002;exitY=0.648;exitPerimeter=0;entryX=1.002;entryY=0.169;entryPerimeter=0;" edge="1" parent="1" source="cxxOy_mN2csLwImhf0tn-160" target="cxxOy_mN2csLwImhf0tn-103">
            <mxGeometry width="100" height="100" relative="1" as="geometry">
              <Array as="points" />
            </mxGeometry>
          </mxCell>
        </UserObject>
        <UserObject label="" lucidchartObjectId="pI.H0JhxMEbm" id="cxxOy_mN2csLwImhf0tn-168">
          <mxCell style="html=1;jettySize=18;whiteSpace=wrap;fontSize=11;strokeOpacity=100;rounded=1;arcSize=24;edgeStyle=orthogonalEdgeStyle;startArrow=ERone;startSize=16;;endArrow=ERmany;endSize=10;;exitX=1.002;exitY=0.648;exitPerimeter=0;entryX=-0.002;entryY=0.132;entryPerimeter=0;" edge="1" parent="1" source="cxxOy_mN2csLwImhf0tn-160" target="cxxOy_mN2csLwImhf0tn-123">
            <mxGeometry width="100" height="100" relative="1" as="geometry">
              <Array as="points" />
            </mxGeometry>
          </mxCell>
        </UserObject>
        <UserObject label="" lucidchartObjectId="RI.HPLGmKDn9" id="cxxOy_mN2csLwImhf0tn-169">
          <mxCell style="html=1;jettySize=18;whiteSpace=wrap;fontSize=11;strokeOpacity=100;rounded=1;arcSize=24;edgeStyle=orthogonalEdgeStyle;startArrow=ERone;startSize=16;;endArrow=ERone;endSize=16;;exitX=1.002;exitY=0.279;exitPerimeter=0;entryX=-0.002;entryY=0.279;entryPerimeter=0;" edge="1" parent="1" source="cxxOy_mN2csLwImhf0tn-70" target="cxxOy_mN2csLwImhf0tn-92">
            <mxGeometry width="100" height="100" relative="1" as="geometry">
              <Array as="points" />
            </mxGeometry>
          </mxCell>
        </UserObject>
        <UserObject label="" lucidchartObjectId="LJ.HTKul3PBc" id="cxxOy_mN2csLwImhf0tn-170">
          <mxCell style="html=1;jettySize=18;whiteSpace=wrap;fontSize=11;strokeOpacity=100;rounded=1;arcSize=24;edgeStyle=orthogonalEdgeStyle;startArrow=ERone;startSize=16;;endArrow=ERone;endSize=16;;exitX=1.002;exitY=0.141;exitPerimeter=0;entryX=-0.002;entryY=0.848;entryPerimeter=0;" edge="1" parent="1" source="cxxOy_mN2csLwImhf0tn-32" target="cxxOy_mN2csLwImhf0tn-1">
            <mxGeometry width="100" height="100" relative="1" as="geometry">
              <Array as="points" />
            </mxGeometry>
          </mxCell>
        </UserObject>
        <UserObject label="" lucidchartObjectId="TK.HoQKepqF~" id="cxxOy_mN2csLwImhf0tn-171">
          <mxCell style="html=1;jettySize=18;whiteSpace=wrap;fontSize=11;strokeOpacity=100;rounded=1;arcSize=24;edgeStyle=orthogonalEdgeStyle;startArrow=ERone;startSize=16;;exitX=1.002;exitY=0.211;exitPerimeter=0;entryX=-0.002;entryY=0.139;entryPerimeter=0;" edge="1" parent="1" source="cxxOy_mN2csLwImhf0tn-55" target="cxxOy_mN2csLwImhf0tn-32">
            <mxGeometry width="100" height="100" relative="1" as="geometry">
              <Array as="points" />
            </mxGeometry>
          </mxCell>
        </UserObject>
      </root>
    </mxGraphModel>
  </diagram>
</mxfile>
